<svg width="40" height="26" viewBox="0 0 40 26" fill="none"
    xmlns="http://www.w3.org/2000/svg">
    <rect width="40" height="25.3968" rx="2" fill="white"/>
    <rect x="0.35" y="0.35" width="39.3" height="24.6968" rx="1.65" stroke="#C8D8E4" stroke-opacity="0.5" stroke-width="0.7"/>
    <rect x="9.5" y="5.5" width="21" height="14.7143" rx="3.5" fill="#A8A8A8" stroke="#F3F3F3"/>
    <path fill-rule="evenodd" clip-rule="evenodd" d="M13.4995 16.3509V13.1159H17.036L17.4155 13.595L17.8074 13.1159H30.6443V16.1278C30.6443 16.1278 30.3086 16.3477 29.9203 16.3509H22.8123L22.3845 15.841V16.3509H20.9826V15.4804C20.9826 15.4804 20.7911 15.6019 20.3771 15.6019H19.9V16.3509H17.7774L17.3985 15.8616L17.0138 16.3509H13.4995ZM9.37891 10.6777L10.1746 8.87695H11.5507L12.0023 9.88567V8.87695H13.7129L13.9817 9.60602L14.2423 8.87695H21.9211V9.24348C21.9211 9.24348 22.3247 8.87695 22.9881 8.87695L25.4796 8.88541L25.9234 9.88092V8.87695H27.3549L27.7489 9.44879V8.87695H29.1936V12.1119H27.7489L27.3713 11.5383V12.1119H25.2681L25.0566 11.602H24.4912L24.2831 12.1119H22.8568C22.286 12.1119 21.9211 11.7529 21.9211 11.7529V12.1119H19.7705L19.3437 11.602V12.1119H11.3468L11.1355 11.602H10.5719L10.362 12.1119H9.37891V10.6777ZM9.38305 11.698L10.4563 9.27575H11.2699L12.3421 11.698H11.628L11.431 11.213H10.2798L10.0818 11.698H9.38305ZM11.2043 10.6872L10.8534 9.83956L10.5015 10.6872H11.2043ZM12.416 11.6976V9.27537L13.4089 9.27895L13.9864 10.8407L14.5501 9.27537H15.5351V11.6976H14.9113V9.91281L14.25 11.6976H13.7029L13.0398 9.91281V11.6976H12.416ZM15.962 11.6976V9.27537H17.9976V9.81719H16.5923V10.2315H17.9648V10.7415H16.5923V11.1717H17.9976V11.6976H15.962ZM18.3587 11.698V9.27575H19.7469C20.2069 9.27575 20.619 9.55187 20.619 10.0616C20.619 10.4973 20.2715 10.778 19.9347 10.8056L20.7555 11.698H19.9932L19.2452 10.8375H18.9825V11.698H18.3587ZM19.6957 9.81754H18.9826V10.3275H19.7049C19.83 10.3275 19.9912 10.2334 19.9912 10.0725C19.9912 9.94743 19.8668 9.81754 19.6957 9.81754ZM21.5106 11.6976H20.8737V9.27537H21.5106V11.6976ZM23.021 11.6976H22.8835C22.2183 11.6976 21.8144 11.1889 21.8144 10.4965C21.8144 9.78694 22.2137 9.27537 23.0538 9.27537H23.7433V9.84906H23.0286C22.6876 9.84906 22.4464 10.1074 22.4464 10.5024C22.4464 10.9715 22.7222 11.1686 23.1195 11.1686H23.2836L23.021 11.6976ZM23.3052 11.698L24.3785 9.27575H25.1921L26.2643 11.698H25.5502L25.3532 11.213H24.202L24.004 11.698H23.3052ZM25.1265 10.6872L24.7756 9.83956L24.4237 10.6872H25.1265ZM26.3371 11.6976V9.27537H27.1303L28.143 10.7973V9.27537H28.7668V11.6976H27.9993L26.961 10.1359V11.6976H26.3371ZM13.9263 15.9366V13.5144H15.9619V14.0562H14.5567V14.4705H15.9291V14.9805H14.5567V15.4108H15.9619V15.9366H13.9263ZM23.901 15.9366V13.5144H25.9366V14.0562H24.5314V14.4705H25.8972V14.9805H24.5314V15.4108H25.9366V15.9366H23.901ZM16.0409 15.9366L17.032 14.7405L16.0173 13.5144H16.8032L17.4075 14.2723L18.0139 13.5144H18.7691L17.7677 14.7255L18.7606 15.9366H17.9748L17.388 15.1906L16.8155 15.9366H16.0409ZM18.8348 15.937V13.5147H20.2128C20.7782 13.5147 21.1085 13.8684 21.1085 14.3294C21.1085 14.8859 20.6873 15.172 20.1317 15.172H19.475V15.937H18.8348ZM20.1665 14.0626H19.475V14.6204H20.1645C20.3467 14.6204 20.4743 14.5031 20.4743 14.3415C20.4743 14.1694 20.346 14.0626 20.1665 14.0626ZM21.3794 15.9366V13.5144H22.7676C23.2276 13.5144 23.6397 13.7905 23.6397 14.3002C23.6397 14.736 23.2922 15.0166 22.9554 15.0442L23.7762 15.9366H23.0139L22.2659 15.0761H22.0032V15.9366H21.3794ZM22.7163 14.0562H22.0032V14.5661H22.7255C22.8506 14.5661 23.0118 14.4721 23.0118 14.3111C23.0118 14.1861 22.8874 14.0562 22.7163 14.0562ZM26.2254 15.9366V15.4108H27.4739C27.6586 15.4108 27.7386 15.3139 27.7386 15.2076C27.7386 15.1058 27.6589 15.0028 27.4739 15.0028H26.9097C26.4193 15.0028 26.1462 14.7128 26.1462 14.2773C26.1462 13.8889 26.3963 13.5144 27.1251 13.5144H28.3399L28.0772 14.0594H27.0266C26.8257 14.0594 26.7639 14.1617 26.7639 14.2594C26.7639 14.3598 26.8403 14.4705 26.9937 14.4705H27.5847C28.1314 14.4705 28.3686 14.7716 28.3686 15.1657C28.3686 15.5895 28.1043 15.9366 27.555 15.9366H26.2254ZM28.4237 15.9366V15.4108H29.6722C29.8569 15.4108 29.9369 15.3139 29.9369 15.2076C29.9369 15.1058 29.8571 15.0028 29.6722 15.0028H29.108C28.6176 15.0028 28.3445 14.7128 28.3445 14.2773C28.3445 13.8889 28.5946 13.5144 29.3233 13.5144H30.5381L30.2755 14.0594H29.2248C29.024 14.0594 28.9621 14.1617 28.9621 14.2594C28.9621 14.3598 29.0385 14.4705 29.192 14.4705H29.783C30.3296 14.4705 30.5668 14.7716 30.5668 15.1657C30.5668 15.5895 30.3025 15.9366 29.7532 15.9366H28.4237Z" fill="white"/>
</svg>
