<svg width="40" height="26" viewBox="0 0 40 26" fill="none"
    xmlns="http://www.w3.org/2000/svg">
    <rect width="40" height="25.3968" rx="2" fill="white"/>
    <rect x="0.35" y="0.35" width="39.3" height="24.6968" rx="1.65" stroke="#C8D8E4" stroke-opacity="0.5" stroke-width="0.7"/>
    <path fill-rule="evenodd" clip-rule="evenodd" d="M31.1105 11.1041C32.105 11.1041 32.6519 11.5582 32.6519 12.416C32.7017 13.0719 32.2542 13.6269 31.6575 13.7279L33 15.5947H31.9558L30.8122 13.7783H30.7127V15.5947H29.8674V11.1041H31.1105ZM30.7127 13.1729H30.9613C31.5083 13.1729 31.7569 12.9206 31.7569 12.4665C31.7569 12.0629 31.5083 11.8106 30.9613 11.8106H30.7127V13.1729ZM26.9337 15.5947H29.3204V14.8379H27.779V13.6269H29.2707V12.8701H27.779V11.861H29.3204V11.1041H26.9337V15.5947ZM24.4475 14.1315L23.3038 11.1041H22.4088L24.2486 15.6957H24.6961L26.5359 11.1041H25.6408L24.4475 14.1315ZM14.3537 13.3746C14.3537 14.636 15.3482 15.6956 16.5912 15.6956C16.989 15.6956 17.3371 15.5947 17.6852 15.4433V14.4342C17.4366 14.7369 17.0885 14.9387 16.6907 14.9387C15.8951 14.9387 15.2487 14.3333 15.2487 13.5259V13.425C15.199 12.6177 15.8454 11.9113 16.641 11.8609C17.0388 11.8609 17.4366 12.0627 17.6852 12.3654V11.3563C17.3868 11.1545 16.989 11.104 16.641 11.104C15.3482 11.0031 14.3537 12.0627 14.3537 13.3746ZM12.8122 12.8196C12.3149 12.6178 12.1657 12.5169 12.1657 12.2646C12.2155 11.9619 12.4641 11.7096 12.7624 11.76C13.011 11.76 13.2597 11.9114 13.4586 12.1132L13.9061 11.5078C13.558 11.205 13.1105 11.0032 12.663 11.0032C11.9668 10.9527 11.3702 11.5078 11.3204 12.2141V12.2646C11.3204 12.8701 11.5691 13.2233 12.3646 13.4756C12.5635 13.526 12.7624 13.6269 12.9613 13.7278C13.1105 13.8288 13.2099 13.9801 13.2099 14.182C13.2099 14.5352 12.9116 14.8379 12.6133 14.8379H12.5635C12.1657 14.8379 11.8177 14.5856 11.6685 14.2324L11.1215 14.7874C11.4199 15.3425 12.0166 15.6452 12.6133 15.6452C13.4088 15.6957 14.0552 15.0902 14.105 14.2829V14.1315C14.0552 13.526 13.8066 13.2233 12.8122 12.8196ZM9.92821 15.5947H10.7735V11.1041H9.92821V15.5947ZM6 11.1041H7.24309H7.49171C8.68509 11.1546 9.62984 12.1637 9.58011 13.3747C9.58011 14.0306 9.28177 14.6361 8.78453 15.0902C8.33702 15.4434 7.79006 15.6452 7.24309 15.5947H6V11.1041ZM7.09395 14.8379C7.49174 14.8883 7.93925 14.737 8.23759 14.4847C8.53594 14.182 8.68511 13.7783 8.68511 13.3242C8.68511 12.9205 8.53594 12.5169 8.23759 12.2141C7.93925 11.9619 7.49174 11.8105 7.09395 11.8609H6.84533V14.8379H7.09395Z" fill="#A8A8A8"/>
    <path fill-rule="evenodd" clip-rule="evenodd" d="M20.2209 11C18.9778 11 17.9336 12.0091 17.9336 13.321C17.9336 14.5824 18.9281 15.642 20.2209 15.6925C21.5137 15.7429 22.5082 14.6833 22.5579 13.3715C22.5082 12.0596 21.5137 11 20.2209 11V11Z" fill="#CACACA"/>
</svg>
