<svg width="40" height="26" viewBox="0 0 40 26" fill="none"
    xmlns="http://www.w3.org/2000/svg">
    <rect width="40" height="25.3968" rx="2" fill="white"/>
    <rect x="0.35" y="0.35" width="39.3" height="24.6968" rx="1.65" stroke="#C8D8E4" stroke-opacity="0.5" stroke-width="0.7"/>
    <path fill-rule="evenodd" clip-rule="evenodd" d="M16.0102 18.5181V19.2609V20.0037H15.6937V19.8233C15.5934 19.9571 15.4411 20.041 15.2341 20.041C14.826 20.041 14.506 19.7148 14.506 19.2609C14.506 18.8073 14.826 18.4807 15.2341 18.4807C15.4411 18.4807 15.5934 18.5647 15.6937 18.6984V18.5181H16.0102ZM15.2734 18.7852C14.9995 18.7852 14.8318 18.9997 14.8318 19.2608C14.8318 19.5219 14.9995 19.7364 15.2734 19.7364C15.5351 19.7364 15.7118 19.5312 15.7118 19.2608C15.7118 18.9904 15.5351 18.7852 15.2734 18.7852ZM26.7034 19.2608C26.7034 18.9997 26.8711 18.7852 27.145 18.7852C27.407 18.7852 27.5834 18.9904 27.5834 19.2608C27.5834 19.5312 27.407 19.7364 27.145 19.7364C26.8711 19.7364 26.7034 19.5219 26.7034 19.2608ZM27.8821 17.9215V19.2609V20.0037H27.5653V19.8233C27.4649 19.9571 27.3126 20.041 27.1056 20.041C26.6975 20.041 26.3776 19.7148 26.3776 19.2609C26.3776 18.8073 26.6975 18.4807 27.1056 18.4807C27.3126 18.4807 27.4649 18.5647 27.5653 18.6984V17.9215L27.8821 17.9215ZM19.9381 18.7699C20.142 18.7699 20.273 18.9005 20.3065 19.1303H19.5513C19.5851 18.9158 19.7126 18.7699 19.9381 18.7699ZM19.2194 19.2609C19.2194 18.7977 19.5178 18.4807 19.9443 18.4807C20.3521 18.4807 20.6323 18.7977 20.6354 19.2609C20.6354 19.3043 20.6323 19.3448 20.6291 19.385H19.5484C19.5941 19.6525 19.7798 19.749 19.9837 19.749C20.1297 19.749 20.2852 19.6927 20.4071 19.5935L20.5622 19.8329C20.3855 19.9852 20.1848 20.041 19.9656 20.041C19.53 20.041 19.2194 19.7333 19.2194 19.2609ZM23.7652 19.2608C23.7652 18.9997 23.9328 18.7852 24.2068 18.7852C24.4685 18.7852 24.6452 18.9904 24.6452 19.2608C24.6452 19.5312 24.4685 19.7364 24.2068 19.7364C23.9328 19.7364 23.7652 19.5219 23.7652 19.2608ZM24.9437 18.5181V19.2609V20.0037H24.6272V19.8233C24.5265 19.9571 24.3746 20.041 24.1675 20.041C23.7595 20.041 23.4395 19.7148 23.4395 19.2609C23.4395 18.8073 23.7595 18.4807 24.1675 18.4807C24.3746 18.4807 24.5265 18.5647 24.6272 18.6984V18.5181H24.9437ZM21.9782 19.2609C21.9782 19.7116 22.2856 20.041 22.7546 20.041C22.9738 20.041 23.1199 19.9912 23.2781 19.8639L23.1261 19.6027C23.0073 19.6899 22.8825 19.7365 22.7452 19.7365C22.4926 19.7333 22.3068 19.5469 22.3068 19.2609C22.3068 18.9749 22.4926 18.7884 22.7452 18.7852C22.8825 18.7852 23.0073 18.8318 23.1261 18.919L23.2781 18.6579C23.1199 18.5305 22.9738 18.4807 22.7546 18.4807C22.2856 18.4807 21.9782 18.8101 21.9782 19.2609ZM25.6743 18.6984C25.7566 18.5679 25.8754 18.4807 26.058 18.4807C26.1222 18.4807 26.2135 18.4932 26.2835 18.5213L26.1859 18.8258C26.119 18.7977 26.0521 18.7884 25.988 18.7884C25.781 18.7884 25.6775 18.925 25.6775 19.1708V20.0036H25.3607V18.5181H25.6743V18.6984ZM17.5753 18.6362C17.423 18.5337 17.2132 18.4807 16.9818 18.4807C16.6131 18.4807 16.3758 18.6611 16.3758 18.9564C16.3758 19.1986 16.5525 19.348 16.878 19.3946L17.0275 19.4163C17.201 19.4412 17.2829 19.4878 17.2829 19.5718C17.2829 19.6867 17.1672 19.7522 16.9511 19.7522C16.7319 19.7522 16.5737 19.6806 16.4671 19.5967L16.3179 19.8482C16.4915 19.9788 16.7107 20.041 16.948 20.041C17.3683 20.041 17.6119 19.839 17.6119 19.5561C17.6119 19.295 17.4202 19.1584 17.1034 19.1118L16.9543 19.0898C16.8173 19.0713 16.7075 19.0435 16.7075 18.9439C16.7075 18.835 16.8111 18.7699 16.9846 18.7699C17.1704 18.7699 17.3502 18.8414 17.4383 18.8973L17.5753 18.6362ZM21.275 18.6984C21.3569 18.5679 21.4757 18.4807 21.6584 18.4807C21.7225 18.4807 21.8138 18.4932 21.8838 18.5213L21.7863 18.8258C21.7193 18.7977 21.6524 18.7884 21.5883 18.7884C21.3813 18.7884 21.2778 18.925 21.2778 19.1708V20.0036H20.9614V18.5181H21.275V18.6984ZM18.9577 18.5181H18.4402V18.0674H18.1203V18.5181H17.8251V18.8133H18.1203V19.491C18.1203 19.8358 18.2513 20.041 18.6256 20.041C18.7629 20.041 18.9211 19.9976 19.0215 19.9261L18.9302 19.6493C18.8357 19.7052 18.7322 19.7333 18.65 19.7333C18.4918 19.7333 18.4402 19.6337 18.4402 19.4846V18.8133H18.9577V18.5181ZM14.2261 19.0707V20.0031H13.9062V19.1763C13.9062 18.9245 13.8026 18.7847 13.5866 18.7847C13.3764 18.7847 13.2304 18.9216 13.2304 19.1795V20.0031H12.9105V19.1763C12.9105 18.9245 12.8042 18.7847 12.5941 18.7847C12.3776 18.7847 12.2375 18.9216 12.2375 19.1795V20.0031H11.918V18.5175H12.2348V18.7007C12.3536 18.5268 12.5055 18.4801 12.661 18.4801C12.8833 18.4801 13.0415 18.5798 13.1419 18.7445C13.2761 18.536 13.4677 18.4769 13.6535 18.4801C14.0069 18.4834 14.2261 18.7196 14.2261 19.0707Z" fill="#A8A8A8"/>
    <path d="M22.2667 15.9935H17.4707V7.19531H22.2667V15.9935Z" fill="#A8A8A8"/>
    <path d="M17.7748 11.5959C17.7748 9.81116 18.5934 8.22135 19.8682 7.19681C18.936 6.44762 17.7595 6.00045 16.4808 6.00045C13.4538 6.00045 11 8.50559 11 11.5959C11 14.6863 13.4538 17.1914 16.4808 17.1914C17.7595 17.1914 18.936 16.7442 19.8682 15.995C18.5934 14.9705 17.7748 13.3807 17.7748 11.5959Z" fill="#A8A8A8"/>
    <path d="M28.8686 11.5959C28.8686 14.6863 26.4148 17.1914 23.3878 17.1914C22.1091 17.1914 20.9326 16.7442 20 15.995C21.2752 14.9705 22.0938 13.3807 22.0938 11.5959C22.0938 9.81116 21.2752 8.22135 20 7.19681C20.9326 6.44762 22.1091 6.00045 23.3878 6.00045C26.4148 6.00045 28.8686 8.50559 28.8686 11.5959Z" fill="#CACACA"/>
</svg>
