<svg width="34" height="26" viewBox="0 0 34 26" fill="none" xmlns="http://www.w3.org/2000/svg">
    <path opacity="0.7" d="M33.1962 22.174V20.8691H0.515625V22.174H2.19992V24.3376H0.515625V25.6391H33.1962V24.3343H31.9447V22.1706L33.1962 22.174ZM15.2449 24.3376H5.42537V22.174H15.2449V24.3376ZM28.7259 24.3376H18.467V22.174H28.7242L28.7259 24.3376Z" fill="#488492"/>
    <path opacity="0.9" d="M16.8552 10.416H6.55469V20.1656H16.8552V10.416Z" fill="#444545"/>
    <path opacity="0.9" d="M16.8552 10.416H6.55469V13.758H16.8552V10.416Z" fill="#444545"/>
    <path opacity="0.8" d="M13.0903 14.883L12.8107 14.8281L12.5128 14.883L12.2648 14.8431C12.2048 14.867 12.1412 14.8805 12.0767 14.883C11.9918 14.8864 11.9071 14.8711 11.8288 14.8381L11.6057 14.883L11.2929 14.8381L11.0881 14.8714L10.9367 14.8281L10.7503 14.888L10.5839 14.8631L10.3242 14.883V10.416H13.092L13.0903 14.883Z" fill="white"/>
    <path opacity="0.8" d="M16.2283 16.8594H14.4824V19.5939H16.2283V16.8594Z" fill="#E8E8E8"/>
    <path d="M15.1973 17.1602H14.6797V17.6777H15.1973V17.1602Z" fill="#444545"/>
    <path d="M15.9712 17.8145H14.6797V17.9343H15.9712V17.8145Z" fill="#444545"/>
    <path d="M15.5601 18.1055H14.6797V18.2253H15.5601V18.1055Z" fill="#444545"/>
    <path opacity="0.9" d="M27.9001 10.416H17.5996V20.1656H27.9001V10.416Z" fill="#444545"/>
    <path opacity="0.9" d="M27.9001 10.416H17.5996V13.758H27.9001V10.416Z" fill="#444545"/>
    <path opacity="0.8" d="M24.1336 14.883L23.8556 14.8281L23.5577 14.883L23.3097 14.8431C23.2491 14.8667 23.185 14.8802 23.12 14.883C23.0356 14.8866 22.9514 14.8713 22.8737 14.8381L22.649 14.883L22.3378 14.8381L22.1331 14.8714L21.9799 14.8281L21.7935 14.888L21.6271 14.8631L21.3691 14.883V10.416H24.1352L24.1336 14.883Z" fill="white"/>
    <path opacity="0.8" d="M27.2752 16.8594H25.5293V19.5939H27.2752V16.8594Z" fill="#E8E8E8"/>
    <path d="M26.2403 17.1602H25.7227V17.6777H26.2403V17.1602Z" fill="#444545"/>
    <path d="M27.0142 17.8145H25.7227V17.9343H27.0142V17.8145Z" fill="#444545"/>
    <path d="M26.6031 18.1055H25.7227V18.2253H26.6031V18.1055Z" fill="#444545"/>
    <path opacity="0.9" d="M27.9001 0.0976562H17.5996V9.84725H27.9001V0.0976562Z" fill="#444545"/>
    <path opacity="0.9" d="M27.9001 0.0976562H17.5996V3.43961H27.9001V0.0976562Z" fill="#444545"/>
    <path opacity="0.8" d="M24.1336 4.5647L23.8556 4.50146L23.5577 4.55804L23.3097 4.51644C23.2495 4.54154 23.1852 4.55563 23.12 4.55804C23.0354 4.56208 22.951 4.54611 22.8737 4.51144L22.649 4.55804L22.3378 4.51144L22.1331 4.54473L21.9799 4.50146L21.7935 4.56304L21.6271 4.53807L21.3691 4.55804V0.0976562H24.1352L24.1336 4.5647Z" fill="white"/>
    <path opacity="0.8" d="M27.2752 6.54102H25.5293V9.27549H27.2752V6.54102Z" fill="#E8E8E8"/>
    <path d="M26.2403 6.8418H25.7227V7.3594H26.2403V6.8418Z" fill="#444545"/>
    <path d="M27.0142 7.49609H25.7227V7.61592H27.0142V7.49609Z" fill="#444545"/>
    <path d="M26.6031 7.78711H25.7227V7.90694H26.6031V7.78711Z" fill="#444545"/>
    <path opacity="0.9" d="M16.8552 0.0976562H6.55469V9.84725H16.8552V0.0976562Z" fill="#444545"/>
    <path opacity="0.9" d="M16.8552 0.0976562H6.55469V3.43961H16.8552V0.0976562Z" fill="#444545"/>
    <path opacity="0.8" d="M13.0903 4.56469L12.8107 4.5081L12.5128 4.56469L12.2648 4.52308C12.2052 4.54841 12.1415 4.56251 12.0767 4.56469C11.9916 4.56849 11.9067 4.55254 11.8288 4.51809L11.6057 4.56469L11.2929 4.51809L11.0881 4.55137L10.9367 4.5081L10.7503 4.56968L10.5839 4.54471L10.3242 4.56469V0.0976562H13.092L13.0903 4.56469Z" fill="white"/>
    <path opacity="0.8" d="M16.2283 6.54102H14.4824V9.27549H16.2283V6.54102Z" fill="#E8E8E8"/>
    <path d="M15.1973 6.8418H14.6797V7.3594H15.1973V6.8418Z" fill="#444545"/>
    <path d="M15.9712 7.49609H14.6797V7.61592H15.9712V7.49609Z" fill="#444545"/>
    <path d="M15.5601 7.78711H14.6797V7.90694H15.5601V7.78711Z" fill="#444545"/>
</svg>
