<svg width="40" height="26" viewBox="0 0 40 26" fill="none"
    xmlns="http://www.w3.org/2000/svg">
    <rect width="40" height="25.3968" rx="2" fill="white"/>
    <rect x="0.35" y="0.35" width="39.3" height="24.6968" rx="1.65" stroke="#C8D8E4" stroke-opacity="0.5" stroke-width="0.7"/>
    <path fill-rule="evenodd" clip-rule="evenodd" d="M13.7304 17.0932H11.4006L9.65356 9.98362C9.57063 9.65658 9.39456 9.36746 9.13557 9.23119C8.48922 8.88875 7.77698 8.61622 7 8.47877V8.20505H10.7531C11.2711 8.20505 11.6596 8.61622 11.7244 9.09374L12.6309 14.2221L14.9595 8.20505H17.2246L13.7304 17.0932ZM18.5196 17.0932H16.3193L18.1311 8.20505H20.3314L18.5196 17.0932ZM23.1781 10.6673C23.2429 10.1886 23.6314 9.91484 24.0846 9.91484C24.7969 9.84611 25.5727 9.98356 26.2202 10.3248L26.6087 8.41117C25.9612 8.13745 25.249 8 24.6026 8C22.467 8 20.9131 9.23114 20.9131 10.9398C20.9131 12.2397 22.0138 12.9222 22.7908 13.3333C23.6314 13.7433 23.9551 14.017 23.8904 14.427C23.8904 15.042 23.2429 15.3157 22.5965 15.3157C21.8196 15.3157 21.0426 15.1107 20.3315 14.7683L19.943 16.6831C20.72 17.0244 21.5606 17.1618 22.3375 17.1618C24.7321 17.2294 26.2202 15.9994 26.2202 14.1533C26.2202 11.8285 23.1781 11.6922 23.1781 10.6673ZM33.9208 17.0932L32.1737 8.20505H30.2971C29.9086 8.20505 29.5201 8.47877 29.3906 8.88875L26.1555 17.0932H28.4205L28.8726 15.7945H31.6557L31.9147 17.0932H33.9208ZM30.6208 10.5987L31.2671 13.9485H29.4553L30.6208 10.5987Z" fill="#A8A8A8"/>
</svg>
