<svg width="278" height="278" viewBox="0 0 278 278" fill="none" xmlns="http://www.w3.org/2000/svg">
    <path opacity="0.4" d="M138.906 119.169C156.9 119.169 171.487 104.582 171.487 86.5885C171.487 68.595 156.9 54.0083 138.906 54.0083C120.913 54.0083 106.326 68.595 106.326 86.5885C106.326 104.582 120.913 119.169 138.906 119.169Z" fill="#BFE6D1"/>
    <path d="M118.021 87.4621L136.261 101.02L159.791 72.1733" stroke="#52AB98" stroke-width="4" stroke-linecap="round" stroke-linejoin="round"/>
    <path opacity="0.7" d="M115.516 159.521H206.853L217.477 135.117H126.14L115.516 159.521Z" fill="#444545"/>
    <path opacity="0.6" d="M207.215 159.529H65.9409V234.712H207.215V159.529Z" fill="#488492"/>
    <path opacity="0.6" d="M207.207 159.521H157.278V234.704H207.207V159.521Z" fill="#488492"/>
    <path opacity="0.8" d="M146.654 171.101H126.494V202.676H146.654V171.101Z" fill="#E8E8E8"/>
    <path d="M134.719 174.595H128.744V180.571H134.719V174.595Z" fill="#444545"/>
    <path d="M143.662 182.137H128.744V183.521H143.662V182.137Z" fill="#444545"/>
    <path d="M138.906 185.5H128.744V186.884H138.906V185.5Z" fill="#444545"/>
    <path d="M157.278 159.521H65.9412L55.3174 135.117H146.654L157.278 159.521Z" fill="#488492"/>
    <path d="M221.087 183.53H171.157L157.278 159.521H207.207L221.087 183.53Z" fill="#488492"/>
    <path d="M65.9408 159.529V183.53H51.707L65.5864 159.529H65.9408Z" fill="#488492"/>
    <path d="M244.477 98.4238C244.098 99.248 238.708 109.962 227.384 111.191C219.331 112.015 209.845 107.894 207.372 100.476C206.342 97.3936 205.905 91.888 209.499 88.7231C212.795 85.8549 218.144 85.995 221.301 88.2368C227.367 92.5473 224.894 104.366 222.949 109.781C221.911 112.641 219.381 119.589 212.804 123.191C204.174 127.913 191.68 125.193 182.309 116.029" stroke="#80CEA3" stroke-width="4" stroke-miterlimit="10"/>
    <path d="M85.029 122.548C75.3612 123.042 67.3419 118.831 65.0754 112.452C63.3446 107.581 64.3913 99.8828 68.776 98.2097C70.1894 97.7405 71.7126 97.7157 73.1405 98.1386C74.5684 98.5615 75.8325 99.4119 76.7624 100.575C78.7239 103.221 78.0893 107.037 77.0014 108.924C72.287 117.108 46.8278 110.02 44.5283 109.369" stroke="#80CEA3" stroke-width="4" stroke-miterlimit="10"/>
    <path d="M233.878 125.49C236.2 125.49 238.082 123.608 238.082 121.287C238.082 118.965 236.2 117.083 233.878 117.083C231.557 117.083 229.675 118.965 229.675 121.287C229.675 123.608 231.557 125.49 233.878 125.49Z" fill="#80CDEC"/>
    <path d="M75.5427 78.2971C77.8642 78.2971 79.7461 76.4152 79.7461 74.0937C79.7461 71.7723 77.8642 69.8904 75.5427 69.8904C73.2213 69.8904 71.3394 71.7723 71.3394 74.0937C71.3394 76.4152 73.2213 78.2971 75.5427 78.2971Z" fill="#80CDEC"/>
    <path d="M48.7317 66.5854C51.0531 66.5854 52.9351 64.7035 52.9351 62.3821C52.9351 60.0606 51.0531 58.1787 48.7317 58.1787C46.4102 58.1787 44.5283 60.0606 44.5283 62.3821C44.5283 64.7035 46.4102 66.5854 48.7317 66.5854Z" fill="#80CDEC"/>
    <path d="M221.087 51.6511C223.408 51.6511 225.29 49.7692 225.29 47.4478C225.29 45.1263 223.408 43.2444 221.087 43.2444C218.765 43.2444 216.883 45.1263 216.883 47.4478C216.883 49.7692 218.765 51.6511 221.087 51.6511Z" fill="#80CDEC"/>
    <path d="M38.3059 149.763C40.6274 149.763 42.5093 147.881 42.5093 145.559C42.5093 143.238 40.6274 141.356 38.3059 141.356C35.9844 141.356 34.1025 143.238 34.1025 145.559C34.1025 147.881 35.9844 149.763 38.3059 149.763Z" fill="#80CDEC"/>
    <rect x="96.731" y="160.135" width="23.5731" height="74.7836" fill="#FFF2C0" fill-opacity="0.5"/>
</svg>
