<svg width="162" height="64" viewBox="0 0 162 64" fill="none" xmlns="http://www.w3.org/2000/svg">
    <path d="M9.63713 45.2463C9.63713 51.1203 13.1456 54.9301 19.3074 54.9301C25.4637 54.9301 28.9445 51.1203 28.9445 45.2463V17.1172H38.5816V46.1686C38.5816 56.297 31.0849 63.1537 19.3074 63.1537C7.52987 63.1537 0 56.297 0 46.1686V17.1172H9.63713V45.2463Z" fill="#D61515"/>
    <path d="M77.5933 33.8663C77.5933 27.9924 74.0849 24.1825 67.923 24.1825C61.7668 24.1825 58.2859 27.9924 58.2859 33.8663V61.9955H48.6543V32.9441C48.6543 22.8156 56.1511 15.959 67.9286 15.959C79.7005 15.959 87.2304 22.8156 87.2304 32.9441V61.9955H77.5933V33.8663Z" fill="#009D48"/>
    <path d="M96.6309 61.996V17.1343H106.268V61.996H96.6309Z" fill="#009BD9"/>
    <path d="M95.9355 6.28098C95.9355 3.24518 98.451 0.846191 101.463 0.846191C104.48 0.846191 106.957 3.24518 106.957 6.28098C106.957 9.28383 104.475 11.6828 101.463 11.6828C98.451 11.6828 95.9355 9.27834 95.9355 6.28098Z" fill="#009BD9"/>
    <path d="M153.24 23.892C153.24 21.4546 155.176 19.5332 157.62 19.5332C160.07 19.5332 162 21.4546 162 23.892C162 26.3294 160.07 28.2563 157.62 28.2563C155.176 28.2618 153.24 26.3294 153.24 23.892ZM161.283 23.892C161.283 21.8498 159.678 20.2469 157.62 20.2469C155.574 20.2469 153.957 21.8553 153.957 23.892C153.957 25.9287 155.574 27.5481 157.62 27.5481C159.678 27.5481 161.283 25.9342 161.283 23.892ZM155.976 25.9781V21.6193H157.951C158.812 21.6193 159.446 22.1518 159.446 22.9588C159.446 23.6614 159.027 24.1171 158.409 24.2433L159.645 25.9781H158.812L157.637 24.3367H156.66V25.9781H155.976ZM156.66 23.7438H157.764C158.404 23.7438 158.701 23.4748 158.701 22.9752C158.701 22.5196 158.387 22.2396 157.786 22.2396H156.66V23.7438V23.7438Z" fill="#808080"/>
    <path d="M137.623 35.8478L132.073 34.695C126.678 33.5421 124.477 31.8897 124.477 29.0516C124.477 25.5272 127.666 23.2545 132.487 23.2545C137.132 23.2545 140.502 25.637 140.966 29.2931C140.999 29.5511 141.032 29.9683 141.032 30.3471H150.04C150.04 30.3471 150.04 29.8366 150.035 29.4194V29.3261C149.748 21.377 142.571 15.8599 132.421 15.8599C121.796 15.8599 114.807 21.4099 114.807 29.7927C114.807 36.6164 118.922 40.8269 127.312 42.5727L133.309 43.8518C138.958 45.065 141.252 46.7832 141.252 49.7422C141.252 53.2336 137.711 55.693 132.702 55.693C127.279 55.693 123.512 53.294 123.065 49.55C123.004 49.0944 123.01 48.5729 123.01 48.5729H113.726L113.742 49.2975L113.77 49.83C114.272 57.9877 121.344 63.137 132.189 63.137C143.74 63.137 150.856 57.5869 150.856 48.6113C150.862 41.6778 146.874 37.7802 137.623 35.8478Z" fill="#FFCB05"/>
</svg>
