<svg width="62" height="62" viewBox="0 0 62 62" fill="none" xmlns="http://www.w3.org/2000/svg">
    <path opacity="0.9" d="M47.7521 15.0023H14V46.9478H47.7521V15.0023Z" fill="#444545"/>
    <path opacity="0.9" d="M47.7521 15.0023H14V25.9522H47.7521V15.0023Z" fill="#444545"/>
    <path d="M35.4088 29.6389L34.496 29.4546L33.5212 29.6389L32.7084 29.5046C32.481 29.5971 32.2374 29.6433 31.9919 29.6404C31.7464 29.6374 31.504 29.5854 31.2789 29.4873L30.5452 29.6389L29.5222 29.4873L28.8523 29.5976L28.3529 29.4546L27.7415 29.6527L27.1904 29.5717L26.343 29.6389V15H35.4088V29.6389Z" fill="white"/>
    <path opacity="0.8" d="M45.6993 36.1095H39.9763V45.0702H45.6993V36.1095Z" fill="#D32F2F"/>
    <path d="M42.3116 37.0997H40.6169V38.7944H42.3116V37.0997Z" fill="white"/>
    <path d="M44.8502 39.2422H40.6169V39.6366H44.8502V39.2422Z" fill="white"/>
    <path d="M43.4999 40.1963H40.6169V40.5907H43.4999V40.1963Z" fill="white"/>
</svg>
