<svg width="62" height="62" viewBox="0 0 62 62" fill="none" xmlns="http://www.w3.org/2000/svg">
    <path opacity="0.4" d="M31.217 51.3894C41.6179 51.3894 50.0495 42.9578 50.0495 32.5569C50.0495 22.156 41.6179 13.7244 31.217 13.7244C20.8161 13.7244 12.3845 22.156 12.3845 32.5569C12.3845 42.9578 20.8161 51.3894 31.217 51.3894Z" fill="#E52628"/>
    <path opacity="0.7" d="M39.5716 24.1385H20.0881V39.003H39.5716V24.1385Z" fill="#444545"/>
    <path opacity="0.9" d="M39.5698 24.1385H34.1414V39.003H39.5698V24.1385Z" fill="#444545"/>
    <path opacity="0.8" d="M32.2952 25.7232H28.8955V31.0466H32.2952V25.7232Z" fill="#E8E8E8"/>
    <path d="M30.2819 26.3123H29.2744V27.3198H30.2819V26.3123Z" fill="#444545"/>
    <path d="M31.7889 27.5829H29.2744V27.8172H31.7889V27.5829Z" fill="#444545"/>
    <path d="M30.9863 28.15H29.2744V28.3842H30.9863V28.15Z" fill="#444545"/>
    <path opacity="0.8" d="M39.1787 42.5907C41.7744 42.5907 43.8786 40.4865 43.8786 37.8908C43.8786 35.2951 41.7744 33.1909 39.1787 33.1909C36.583 33.1909 34.4788 35.2951 34.4788 37.8908C34.4788 40.4865 36.583 42.5907 39.1787 42.5907Z" fill="#E8E8E8"/>
    <path d="M39.179 40.9785V34.8026" stroke="#444545" stroke-miterlimit="10"/>
    <path d="M36.0237 37.8908H42.3339" stroke="#444545" stroke-miterlimit="10"/>
</svg>
