<svg width="62" height="62" viewBox="0 0 62 62" fill="none" xmlns="http://www.w3.org/2000/svg">
    <path opacity="0.4" d="M31 49.8326C41.4009 49.8326 49.8325 41.401 49.8325 31.0001C49.8325 20.5992 41.4009 12.1676 31 12.1676C20.5991 12.1676 12.1675 20.5992 12.1675 31.0001C12.1675 41.401 20.5991 49.8326 31 49.8326Z" fill="#E52628"/>
    <path opacity="0.7" d="M33.5177 21.781C33.5161 22.0996 33.4738 22.4168 33.392 22.7247C33.2284 23.312 32.4069 24.552 30.9809 25.8885C29.6944 24.5606 28.8695 23.3964 28.6404 22.7626C28.5443 22.4958 28.4891 22.2159 28.4768 21.9325C28.4774 21.6176 28.5394 21.3058 28.6594 21.0146C28.7799 20.6937 28.9663 20.4017 29.2066 20.1573C29.4468 19.9129 29.7356 19.7215 30.0544 19.5955C30.3609 19.4658 30.6894 19.3956 31.0222 19.3888C32.1916 19.3888 32.9322 20.2499 32.9856 20.3222C33.1774 20.5597 33.3261 20.829 33.4247 21.1179C33.4768 21.3354 33.508 21.5575 33.5177 21.781Z" fill="#E52628"/>
    <path opacity="0.7" d="M31.0258 22.9093C31.5651 22.9093 32.0023 22.4721 32.0023 21.9328C32.0023 21.3935 31.5651 20.9563 31.0258 20.9563C30.4865 20.9563 30.0493 21.3935 30.0493 21.9328C30.0493 22.4721 30.4865 22.9093 31.0258 22.9093Z" fill="#E52628"/>
    <path opacity="0.9" d="M28.0878 34.2724C28.0881 34.3375 28.0691 34.4011 28.0332 34.4554C27.9974 34.5096 27.9462 34.5521 27.8863 34.5772H27.6296C27.561 34.5475 27.5045 34.4954 27.4693 34.4293C27.4341 34.3633 27.4223 34.2873 27.4359 34.2137C27.4495 34.1402 27.4877 34.0734 27.5441 34.0243C27.6006 33.9752 27.672 33.9467 27.7468 33.9435H27.7691C27.8546 33.9462 27.9356 33.982 27.9951 34.0434C28.0546 34.1048 28.0878 34.1869 28.0878 34.2724Z" fill="#E52628"/>
    <path opacity="0.8" d="M26.0813 29.061V34.5721H27.0285C26.9881 34.4756 26.9676 34.3719 26.9682 34.2673C26.9683 34.1539 26.9924 34.0418 27.0389 33.9384C27.1018 33.8005 27.2031 33.6837 27.3305 33.6018C27.458 33.5199 27.6064 33.4763 27.7579 33.4763C27.9094 33.4763 28.0577 33.5199 28.1852 33.6018C28.3127 33.6837 28.4139 33.8005 28.4769 33.9384C28.5228 34.0374 28.5474 34.145 28.5492 34.2542C28.551 34.3633 28.5299 34.4716 28.4872 34.5721H33.6332V29.061H26.0813ZM33.0959 33.947H28.7611C28.6916 33.7348 28.5569 33.5499 28.3761 33.4189C28.1953 33.2878 27.9777 33.2172 27.7544 33.2172C27.5311 33.2172 27.3136 33.2878 27.1328 33.4189C26.952 33.5499 26.8172 33.7348 26.7478 33.947H26.6152V29.6948H33.0925L33.0959 33.947Z" fill="#E52628"/>
    <path opacity="0.9" d="M33.096 29.6946V33.9467H28.7611C28.6917 33.7345 28.5569 33.5497 28.3761 33.4186C28.1954 33.2876 27.9778 33.217 27.7545 33.217C27.5312 33.217 27.3136 33.2876 27.1328 33.4186C26.952 33.5497 26.8173 33.7345 26.7478 33.9467H26.6152V29.6946H33.096Z" fill="#E52628"/>
    <path opacity="0.9" d="M33.096 29.6946V33.9467H28.7611C28.6917 33.7345 28.5569 33.5497 28.3761 33.4186C28.1954 33.2876 27.9778 33.217 27.7545 33.217C27.5312 33.217 27.3136 33.2876 27.1328 33.4186C26.952 33.5497 26.8173 33.7345 26.7478 33.9467H26.6152V29.6946H33.096Z" fill="#E52628"/>
    <path opacity="0.9" d="M28.4769 33.9468C28.414 33.8089 28.3127 33.6921 28.1853 33.6102C28.0578 33.5283 27.9094 33.4847 27.7579 33.4847C27.6064 33.4847 27.4581 33.5283 27.3306 33.6102C27.2031 33.6921 27.1019 33.8089 27.0389 33.9468C26.9924 34.0502 26.9684 34.1623 26.9683 34.2757C26.9676 34.3804 26.9881 34.484 27.0286 34.5806C27.0881 34.7251 27.1892 34.8486 27.319 34.9356C27.4489 35.0226 27.6016 35.069 27.7579 35.069C27.9142 35.069 28.067 35.0226 28.1968 34.9356C28.3267 34.8486 28.4278 34.7251 28.4873 34.5806C28.5299 34.48 28.551 34.3717 28.5492 34.2626C28.5474 34.1534 28.5228 34.0458 28.4769 33.9468ZM27.8862 34.5806C27.8456 34.5976 27.802 34.6063 27.7579 34.6063C27.7139 34.6063 27.6702 34.5976 27.6296 34.5806C27.561 34.5508 27.5044 34.4987 27.4692 34.4326C27.434 34.3666 27.4223 34.2906 27.4359 34.217C27.4495 34.1435 27.4876 34.0767 27.5441 34.0276C27.6005 33.9785 27.672 33.95 27.7467 33.9468H27.7691C27.8439 33.95 27.9153 33.9785 27.9718 34.0276C28.0282 34.0767 28.0664 34.1435 28.0799 34.217C28.0935 34.2906 28.0818 34.3666 28.0466 34.4326C28.0114 34.4987 27.9549 34.5508 27.8862 34.5806Z" fill="#444545"/>
    <path opacity="0.9" d="M28.0878 34.2724C28.0881 34.3375 28.0691 34.4011 28.0332 34.4554C27.9974 34.5096 27.9462 34.552 27.8863 34.5772C27.8456 34.5943 27.802 34.603 27.758 34.603C27.7139 34.603 27.6703 34.5943 27.6296 34.5772C27.561 34.5475 27.5045 34.4954 27.4693 34.4293C27.4341 34.3633 27.4223 34.2873 27.4359 34.2137C27.4495 34.1402 27.4877 34.0734 27.5441 34.0243C27.6006 33.9752 27.672 33.9467 27.7468 33.9435H27.7691C27.8546 33.9462 27.9356 33.982 27.9951 34.0434C28.0546 34.1048 28.0878 34.1869 28.0878 34.2724Z" fill="#444545"/>
    <path d="M28.0878 34.2724C28.0881 34.3375 28.0691 34.4011 28.0332 34.4554C27.9974 34.5096 27.9462 34.552 27.8863 34.5772C27.8456 34.5943 27.802 34.603 27.758 34.603C27.7139 34.603 27.6703 34.5943 27.6296 34.5772C27.561 34.5475 27.5045 34.4954 27.4693 34.4293C27.4341 34.3633 27.4223 34.2873 27.4359 34.2137C27.4495 34.1402 27.4877 34.0734 27.5441 34.0243C27.6006 33.9752 27.672 33.9467 27.7468 33.9435H27.7691C27.8546 33.9462 27.9356 33.982 27.9951 34.0434C28.0546 34.1048 28.0878 34.1869 28.0878 34.2724Z" fill="#444545"/>
    <path opacity="0.8" d="M35.3313 34.2724C35.3316 34.3374 35.3126 34.4011 35.2767 34.4553C35.2409 34.5096 35.1897 34.552 35.1298 34.5772H34.8731C34.8179 34.5541 34.77 34.5165 34.7345 34.4683C34.6989 34.4202 34.6772 34.3633 34.6714 34.3037C34.6657 34.2441 34.6763 34.1841 34.702 34.13C34.7277 34.076 34.7676 34.0299 34.8174 33.9968C34.8672 33.9636 34.9251 33.9446 34.9849 33.9418C35.0447 33.9389 35.1041 33.9524 35.1569 33.9807C35.2096 34.009 35.2537 34.051 35.2844 34.1024C35.3151 34.1538 35.3313 34.2125 35.3313 34.2724Z" fill="#E52628"/>
    <path opacity="0.8" d="M37.157 32.4398V34.5806H35.731C35.772 34.4842 35.7931 34.3805 35.793 34.2757C35.793 34.0661 35.7097 33.865 35.5614 33.7168C35.4132 33.5685 35.2121 33.4852 35.0025 33.4852C34.7928 33.4852 34.5917 33.5685 34.4435 33.7168C34.2953 33.865 34.212 34.0661 34.212 34.2757C34.2113 34.3804 34.2318 34.4841 34.2722 34.5806H33.6333V30.7211H35.9738L37.157 32.4398Z" fill="#E52628"/>
    <path d="M36.5698 32.3779H34.4187V31.1552H35.781C36.0445 31.5375 36.2977 31.999 36.568 32.3814L36.5698 32.3779Z" fill="#E8E8E8"/>
    <path opacity="0.9" d="M35.0024 33.4855C34.7928 33.4855 34.5917 33.5688 34.4435 33.717C34.2952 33.8653 34.2119 34.0663 34.2119 34.276C34.2113 34.3806 34.2318 34.4843 34.2722 34.5808C34.3317 34.7253 34.4328 34.8489 34.5627 34.9359C34.6925 35.0228 34.8453 35.0692 35.0016 35.0692C35.1578 35.0692 35.3106 35.0228 35.4405 34.9359C35.5703 34.8489 35.6714 34.7253 35.7309 34.5808C35.7719 34.4844 35.793 34.3807 35.7929 34.276C35.7925 34.0665 35.709 33.8657 35.5609 33.7175C35.4127 33.5694 35.2119 33.4859 35.0024 33.4855ZM35.0024 34.6066C34.958 34.6071 34.9141 34.5983 34.8733 34.5808C34.8029 34.5512 34.745 34.4981 34.7093 34.4307C34.6736 34.3632 34.6623 34.2854 34.6774 34.2106C34.6925 34.1358 34.7331 34.0685 34.7922 34.0201C34.8512 33.9718 34.9252 33.9454 35.0016 33.9454C35.0779 33.9454 35.1519 33.9718 35.211 34.0201C35.27 34.0685 35.3106 34.1358 35.3257 34.2106C35.3408 34.2854 35.3295 34.3632 35.2939 34.4307C35.2582 34.4981 35.2002 34.5512 35.1299 34.5808C35.0896 34.5981 35.0462 34.6069 35.0024 34.6066Z" fill="#444545"/>
    <path opacity="0.9" d="M35.3313 34.2724C35.3316 34.3374 35.3126 34.4011 35.2767 34.4553C35.2409 34.5096 35.1897 34.552 35.1298 34.5772C35.0891 34.5942 35.0455 34.603 35.0014 34.603C34.9574 34.603 34.9138 34.5942 34.8731 34.5772C34.8179 34.5541 34.77 34.5165 34.7345 34.4683C34.6989 34.4202 34.6772 34.3633 34.6714 34.3037C34.6657 34.2441 34.6763 34.1841 34.702 34.13C34.7277 34.076 34.7676 34.0299 34.8174 33.9968C34.8672 33.9636 34.9251 33.9446 34.9849 33.9418C35.0447 33.9389 35.1041 33.9524 35.1569 33.9807C35.2096 34.009 35.2537 34.051 35.2844 34.1024C35.3151 34.1538 35.3313 34.2125 35.3313 34.2724Z" fill="#444545"/>
    <path d="M35.3313 34.2724C35.3316 34.3374 35.3126 34.4011 35.2767 34.4553C35.2409 34.5096 35.1897 34.552 35.1298 34.5772C35.0891 34.5942 35.0455 34.603 35.0014 34.603C34.9574 34.603 34.9138 34.5942 34.8731 34.5772C34.8179 34.5541 34.77 34.5165 34.7345 34.4683C34.6989 34.4202 34.6772 34.3633 34.6714 34.3037C34.6657 34.2441 34.6763 34.1841 34.702 34.13C34.7277 34.076 34.7676 34.0299 34.8174 33.9968C34.8672 33.9636 34.9251 33.9446 34.9849 33.9418C35.0447 33.9389 35.1041 33.9524 35.1569 33.9807C35.2096 34.009 35.2537 34.051 35.2844 34.1024C35.3151 34.1538 35.3313 34.2125 35.3313 34.2724Z" fill="#444545"/>
    <path opacity="0.9" d="M33.9812 30.7192H33.6333V34.5804H33.9812V30.7192Z" fill="#E52628"/>
    <path opacity="0.1" d="M31.6183 40.8203C36.454 40.8203 40.3741 36.9002 40.3741 32.0645C40.3741 27.2288 36.454 23.3087 31.6183 23.3087C26.7826 23.3087 22.8625 27.2288 22.8625 32.0645C22.8625 36.9002 26.7826 40.8203 31.6183 40.8203Z" fill="#444545"/>
</svg>
