<svg width="62" height="62" viewBox="0 0 62 62" fill="none" xmlns="http://www.w3.org/2000/svg">
    <path opacity="0.4" d="M31.5408 48.6804C41.9417 48.6804 50.3733 40.2488 50.3733 29.8479C50.3733 19.447 41.9417 11.0154 31.5408 11.0154C21.1398 11.0154 12.7083 19.447 12.7083 29.8479C12.7083 40.2488 21.1398 48.6804 31.5408 48.6804Z" fill="#E52628"/>
    <path opacity="0.8" d="M46.9806 31.205V34.4772L43.8565 34.5134C43.9183 34.3662 43.9499 34.2081 43.9495 34.0484C43.9495 33.7287 43.8225 33.422 43.5964 33.196C43.3703 32.9699 43.0637 32.8429 42.7439 32.8429C42.4242 32.8429 42.1175 32.9699 41.8915 33.196C41.6654 33.422 41.5384 33.7287 41.5384 34.0484C41.5379 34.2081 41.5695 34.3662 41.6314 34.5134H40.6445V26.369H44.8226C45.5425 27.981 46.2618 29.593 46.9806 31.205Z" fill="#444545"/>
    <path opacity="0.9" d="M45.7353 30.0117L41.8931 29.979V27.077H44.4333L45.7353 30.0117Z" fill="white"/>
    <path opacity="0.8" d="M43.2468 34.0483C43.2471 34.1476 43.2179 34.2447 43.1631 34.3275C43.1082 34.4102 43.0301 34.4749 42.9385 34.5133H42.539C42.455 34.4778 42.3821 34.4202 42.3282 34.3466C42.2743 34.273 42.2414 34.1862 42.2329 34.0953C42.2244 34.0045 42.2407 33.9131 42.2801 33.8308C42.3194 33.7485 42.3804 33.6784 42.4564 33.6279C42.5324 33.5775 42.6207 33.5486 42.7118 33.5444C42.8029 33.5401 42.8935 33.5606 42.9739 33.6038C43.0543 33.6469 43.1214 33.711 43.1683 33.7893C43.2151 33.8676 43.2399 33.9571 43.2399 34.0483H43.2468Z" fill="#E52628"/>
    <path opacity="0.9" d="M42.7422 32.8411C42.4224 32.8411 42.1158 32.9682 41.8897 33.1942C41.6636 33.4203 41.5366 33.727 41.5366 34.0467C41.5362 34.2064 41.5678 34.3645 41.6296 34.5117C41.7191 34.7355 41.8735 34.9273 42.0731 35.0625C42.2726 35.1976 42.5081 35.2698 42.7491 35.2698C42.9901 35.2698 43.2255 35.1976 43.4251 35.0625C43.6246 34.9273 43.7791 34.7355 43.8685 34.5117C43.9303 34.3645 43.962 34.2064 43.9615 34.0467C43.9615 33.8872 43.9299 33.7293 43.8684 33.5822C43.807 33.435 43.717 33.3015 43.6035 33.1893C43.4901 33.0772 43.3556 32.9887 43.2078 32.9289C43.0599 32.8692 42.9016 32.8393 42.7422 32.8411ZM42.7422 34.5531C42.6747 34.5534 42.6079 34.5399 42.5458 34.5134C42.4301 34.4647 42.3366 34.3748 42.2834 34.261C42.2303 34.1472 42.2213 34.0178 42.2582 33.8977C42.2952 33.7777 42.3754 33.6757 42.4833 33.6115C42.5913 33.5473 42.7192 33.5255 42.8423 33.5504C42.9654 33.5752 43.0749 33.6449 43.1495 33.7459C43.2241 33.8469 43.2585 33.9721 43.246 34.097C43.2335 34.222 43.175 34.3378 43.0819 34.4221C42.9888 34.5064 42.8677 34.5531 42.7422 34.5531Z" fill="#444545"/>
    <path opacity="0.9" d="M43.2468 34.0483C43.2468 34.1146 43.2337 34.1802 43.2083 34.2414C43.183 34.3026 43.1458 34.3582 43.099 34.4051C43.0521 34.452 42.9965 34.4891 42.9353 34.5145C42.874 34.5399 42.8084 34.5529 42.7421 34.5529C42.6747 34.5532 42.6079 34.5398 42.5458 34.5133C42.4618 34.4778 42.3889 34.4202 42.335 34.3466C42.2811 34.273 42.2482 34.1862 42.2397 34.0953C42.2313 34.0045 42.2476 33.9131 42.2869 33.8308C42.3263 33.7485 42.3872 33.6784 42.4632 33.6279C42.5392 33.5775 42.6275 33.5486 42.7186 33.5444C42.8097 33.5401 42.9003 33.5606 42.9807 33.6038C43.0611 33.6469 43.1283 33.711 43.1751 33.7893C43.222 33.8676 43.2467 33.9571 43.2468 34.0483Z" fill="#444545"/>
    <path d="M43.2468 34.0483C43.2468 34.1146 43.2337 34.1802 43.2083 34.2414C43.183 34.3026 43.1458 34.3582 43.099 34.4051C43.0521 34.452 42.9965 34.4891 42.9353 34.5145C42.874 34.5399 42.8084 34.5529 42.7421 34.5529C42.6747 34.5532 42.6079 34.5398 42.5458 34.5133C42.4618 34.4778 42.3889 34.4202 42.335 34.3466C42.2811 34.273 42.2482 34.1862 42.2397 34.0953C42.2313 34.0045 42.2476 33.9131 42.2869 33.8308C42.3263 33.7485 42.3872 33.6784 42.4632 33.6279C42.5392 33.5775 42.6275 33.5486 42.7186 33.5444C42.8097 33.5401 42.9003 33.5606 42.9807 33.6038C43.0611 33.6469 43.1283 33.711 43.1751 33.7893C43.222 33.8676 43.2467 33.9571 43.2468 34.0483Z" fill="#444545"/>
    <path opacity="0.9" d="M41.1801 26.369H40.6497V34.5151H41.1801V26.369Z" fill="#444545"/>
    <path opacity="0.8" d="M36.6281 34.0483C36.6282 34.1475 36.5989 34.2446 36.5441 34.3273C36.4893 34.41 36.4113 34.4747 36.3198 34.5133H35.9272C35.8431 34.4778 35.7703 34.4202 35.7164 34.3466C35.6625 34.273 35.6296 34.1862 35.6211 34.0953C35.6126 34.0045 35.6289 33.9131 35.6683 33.8308C35.7076 33.7485 35.7685 33.6784 35.8446 33.6279C35.9206 33.5775 36.0088 33.5486 36.1 33.5444C36.1911 33.5401 36.2817 33.5606 36.3621 33.6038C36.4424 33.6469 36.5096 33.711 36.5565 33.7893C36.6033 33.8676 36.6281 33.9571 36.6281 34.0483Z" fill="#488492"/>
    <path opacity="0.8" d="M23.4826 34.0485C23.483 34.1476 23.4541 34.2446 23.3996 34.3273C23.345 34.41 23.2672 34.4748 23.176 34.5135H22.7834C22.6998 34.478 22.6273 34.4206 22.5737 34.3473C22.5201 34.274 22.4874 34.1876 22.479 34.0971C22.4706 34.0067 22.4868 33.9157 22.5259 33.8338C22.565 33.7518 22.6256 33.682 22.7012 33.6317C22.7768 33.5815 22.8646 33.5526 22.9553 33.5482C23.046 33.5438 23.1362 33.564 23.2163 33.6068C23.2965 33.6495 23.3635 33.7131 23.4104 33.7909C23.4573 33.8687 23.4822 33.9577 23.4826 34.0485Z" fill="#488492"/>
    <path opacity="0.8" d="M19.84 34.0483C19.8397 34.1477 19.8101 34.2447 19.755 34.3274C19.6999 34.4101 19.6216 34.4748 19.53 34.5133H19.1391C19.0551 34.4778 18.9822 34.4202 18.9283 34.3466C18.8744 34.273 18.8415 34.1862 18.833 34.0953C18.8245 34.0045 18.8408 33.9131 18.8802 33.8308C18.9195 33.7485 18.9805 33.6784 19.0565 33.6279C19.1325 33.5775 19.2208 33.5486 19.3119 33.5444C19.403 33.5401 19.4936 33.5606 19.574 33.6038C19.6544 33.6469 19.7215 33.711 19.7684 33.7893C19.8153 33.8676 19.84 33.9571 19.84 34.0483Z" fill="#488492"/>
    <path opacity="0.8" d="M40.6445 24.4385V34.5135H37.2379C37.2998 34.3663 37.3314 34.2081 37.3309 34.0485C37.3309 33.7287 37.2039 33.4221 36.9778 33.196C36.7517 32.9699 36.4451 32.8429 36.1254 32.8429C35.8056 32.8429 35.499 32.9699 35.2729 33.196C35.0468 33.4221 34.9198 33.7287 34.9198 34.0485C34.9191 34.2083 34.9513 34.3666 35.0145 34.5135H24.0939C24.1558 34.3663 24.1874 34.2081 24.1869 34.0485C24.1869 33.7287 24.0599 33.4221 23.8338 33.196C23.6077 32.9699 23.3011 32.8429 22.9814 32.8429C22.6616 32.8429 22.355 32.9699 22.1289 33.196C21.9028 33.4221 21.7758 33.7287 21.7758 34.0485C21.7753 34.2081 21.807 34.3663 21.8688 34.5135H20.4549C20.5167 34.3663 20.5483 34.2081 20.5479 34.0485C20.5479 33.7287 20.4209 33.4221 20.1948 33.196C19.9687 32.9699 19.662 32.8429 19.3423 32.8429C19.0226 32.8429 18.7159 32.9699 18.4899 33.196C18.2638 33.4221 18.1368 33.7287 18.1368 34.0485C18.1363 34.2081 18.1679 34.3663 18.2298 34.5135H16.0994V24.4385H40.6445Z" fill="#444545"/>
    <path opacity="0.8" d="M39.7023 28.5874H16.8398V30.0117H39.7023V28.5874Z" fill="#444545"/>
    <path opacity="0.9" d="M36.1235 32.8411C35.8038 32.8411 35.4972 32.9681 35.2711 33.1942C35.045 33.4203 34.918 33.7269 34.918 34.0466C34.9172 34.2065 34.9495 34.3648 35.0127 34.5116C35.1038 34.7322 35.2583 34.9208 35.4567 35.0535C35.655 35.1862 35.8883 35.257 36.127 35.257C36.3656 35.257 36.5989 35.1862 36.7973 35.0535C36.9956 34.9208 37.1502 34.7322 37.2413 34.5116C37.3031 34.3644 37.3347 34.2063 37.3343 34.0466C37.3343 33.8879 37.3029 33.7307 37.242 33.5841C37.1811 33.4375 37.0918 33.3044 36.9793 33.1923C36.8668 33.0803 36.7333 32.9916 36.5865 32.9314C36.4396 32.8711 36.2823 32.8404 36.1235 32.8411ZM36.1235 34.553C36.0561 34.5531 35.9893 34.5397 35.9272 34.5133C35.8199 34.468 35.7316 34.387 35.6773 34.2841C35.6229 34.1811 35.6059 34.0625 35.629 33.9483C35.6521 33.8342 35.7139 33.7316 35.8041 33.6579C35.8942 33.5842 36.0071 33.5439 36.1235 33.5439C36.24 33.5439 36.3528 33.5842 36.443 33.6579C36.5331 33.7316 36.595 33.8342 36.6181 33.9483C36.6412 34.0625 36.6241 34.1811 36.5698 34.2841C36.5154 34.387 36.4271 34.468 36.3199 34.5133C36.2578 34.5398 36.191 34.5533 36.1235 34.553Z" fill="#444545"/>
    <path d="M36.6281 34.0483C36.6282 34.1475 36.5989 34.2446 36.5441 34.3273C36.4893 34.41 36.4113 34.4747 36.3198 34.5133C36.2578 34.5398 36.191 34.5532 36.1235 34.5529C36.0561 34.5531 35.9893 34.5396 35.9272 34.5133C35.8431 34.4778 35.7703 34.4202 35.7164 34.3466C35.6625 34.273 35.6296 34.1862 35.6211 34.0953C35.6126 34.0045 35.6289 33.9131 35.6683 33.8308C35.7076 33.7485 35.7685 33.6784 35.8446 33.6279C35.9206 33.5775 36.0088 33.5486 36.1 33.5444C36.1911 33.5401 36.2817 33.5606 36.3621 33.6038C36.4424 33.6469 36.5096 33.711 36.5565 33.7893C36.6033 33.8676 36.6281 33.9571 36.6281 34.0483Z" fill="#444545"/>
    <path opacity="0.9" d="M22.9778 32.8411C22.658 32.8411 22.3514 32.9682 22.1253 33.1942C21.8992 33.4203 21.7722 33.727 21.7722 34.0467C21.7718 34.2064 21.8034 34.3645 21.8652 34.5117C21.9547 34.7355 22.1091 34.9273 22.3087 35.0625C22.5082 35.1976 22.7437 35.2698 22.9847 35.2698C23.2257 35.2698 23.4611 35.1976 23.6607 35.0625C23.8602 34.9273 24.0147 34.7355 24.1041 34.5117C24.1659 34.3645 24.1976 34.2064 24.1971 34.0467C24.1971 33.8872 24.1655 33.7293 24.104 33.5822C24.0426 33.435 23.9526 33.3015 23.8392 33.1893C23.7257 33.0772 23.5912 32.9887 23.4434 32.9289C23.2955 32.8692 23.1372 32.8393 22.9778 32.8411ZM22.9778 34.5531C22.9109 34.5532 22.8447 34.5398 22.7832 34.5134C22.6673 34.4647 22.5738 34.3747 22.5207 34.2608C22.4675 34.1469 22.4586 34.0174 22.4957 33.8973C22.5328 33.7773 22.6132 33.6753 22.7212 33.6112C22.8293 33.5471 22.9574 33.5255 23.0805 33.5505C23.2036 33.5756 23.313 33.6456 23.3874 33.7468C23.4619 33.848 23.496 33.9733 23.4832 34.0983C23.4704 34.2233 23.4116 34.3391 23.3182 34.4231C23.2247 34.5072 23.1034 34.5535 22.9778 34.5531Z" fill="#444545"/>
    <path d="M23.4826 34.0485C23.4828 34.1148 23.4699 34.1805 23.4446 34.2419C23.4194 34.3032 23.3822 34.3589 23.3353 34.4058C23.2884 34.4527 23.2327 34.4899 23.1713 34.5151C23.11 34.5404 23.0443 34.5533 22.978 34.5531C22.9111 34.5533 22.8449 34.5398 22.7834 34.5135C22.6998 34.478 22.6273 34.4206 22.5737 34.3473C22.5201 34.274 22.4874 34.1876 22.479 34.0971C22.4706 34.0067 22.4868 33.9157 22.5259 33.8338C22.565 33.7518 22.6256 33.682 22.7012 33.6317C22.7768 33.5815 22.8646 33.5526 22.9553 33.5482C23.046 33.5438 23.1362 33.564 23.2164 33.6068C23.2965 33.6495 23.3635 33.7131 23.4104 33.7909C23.4573 33.8687 23.4822 33.9577 23.4826 34.0485Z" fill="#444545"/>
    <path opacity="0.9" d="M19.3337 32.8411C19.014 32.8411 18.7074 32.9681 18.4813 33.1942C18.2552 33.4203 18.1282 33.7269 18.1282 34.0466C18.1277 34.2063 18.1593 34.3644 18.2212 34.5116C18.312 34.7327 18.4665 34.9219 18.6651 35.0549C18.8636 35.188 19.0973 35.2591 19.3363 35.2591C19.5754 35.2591 19.809 35.188 20.0076 35.0549C20.2061 34.9219 20.3606 34.7327 20.4515 34.5116C20.5133 34.3644 20.5449 34.2063 20.5445 34.0466C20.5445 33.8879 20.5131 33.7307 20.4522 33.5841C20.3913 33.4375 20.302 33.3044 20.1895 33.1923C20.077 33.0803 19.9435 32.9916 19.7967 32.9314C19.6498 32.8711 19.4925 32.8404 19.3337 32.8411ZM19.3337 34.553C19.2668 34.5532 19.2006 34.5397 19.1391 34.5133C19.0312 34.4682 18.9423 34.387 18.8874 34.2837C18.8325 34.1804 18.8151 34.0613 18.8382 33.9466C18.8612 33.8319 18.9232 33.7287 19.0137 33.6546C19.1042 33.5804 19.2176 33.5399 19.3346 33.5399C19.4516 33.5399 19.565 33.5804 19.6554 33.6546C19.7459 33.7287 19.808 33.8319 19.831 33.9466C19.854 34.0613 19.8367 34.1804 19.7818 34.2837C19.7269 34.387 19.638 34.4682 19.5301 34.5133C19.468 34.5398 19.4012 34.5533 19.3337 34.553Z" fill="#444545"/>
    <path d="M19.84 34.0483C19.8397 34.1477 19.8101 34.2447 19.755 34.3274C19.6999 34.4101 19.6216 34.4748 19.53 34.5133C19.4682 34.5394 19.4017 34.5528 19.3346 34.5528C19.2674 34.5528 19.201 34.5394 19.1391 34.5133C19.0551 34.4778 18.9822 34.4202 18.9283 34.3466C18.8744 34.273 18.8415 34.1862 18.833 34.0953C18.8245 34.0045 18.8408 33.9131 18.8802 33.8308C18.9195 33.7485 18.9805 33.6784 19.0565 33.6279C19.1325 33.5775 19.2208 33.5486 19.3119 33.5444C19.403 33.5401 19.4936 33.5606 19.574 33.6038C19.6544 33.6469 19.7215 33.711 19.7684 33.7893C19.8153 33.8676 19.84 33.9571 19.84 34.0483Z" fill="#444545"/>
</svg>
