<svg width="62" height="62" viewBox="0 0 62 62" fill="none" xmlns="http://www.w3.org/2000/svg">
    <path opacity="0.4" d="M31 48.7576C41.4009 48.7576 49.8325 40.3261 49.8325 29.9251C49.8325 19.5242 41.4009 11.0927 31 11.0927C20.5991 11.0927 12.1675 19.5242 12.1675 29.9251C12.1675 40.3261 20.5991 48.7576 31 48.7576Z" fill="#E52628"/>
    <path opacity="0.7" d="M40.5516 19.6949H25.458V40.477H40.5516V19.6949Z" fill="#444545"/>
    <path d="M27.3747 22.7089H22.623V24.481H27.3747V22.7089Z" fill="#444545"/>
    <path d="M27.3747 29.2H22.623V30.9721H27.3747V29.2Z" fill="#444545"/>
    <path d="M27.3747 35.691H22.623V37.4632H27.3747V35.691Z" fill="#444545"/>
    <g opacity="0.9">
        <path opacity="0.9" d="M33.3132 30.1559C34.5241 30.1559 35.5056 29.1743 35.5056 27.9635C35.5056 26.7527 34.5241 25.7711 33.3132 25.7711C32.1024 25.7711 31.1208 26.7527 31.1208 27.9635C31.1208 29.1743 32.1024 30.1559 33.3132 30.1559Z" fill="white"/>
        <path opacity="0.9" d="M37.2672 34.4013H29.3605C29.3267 33.8613 29.4039 33.3201 29.5872 32.8111C29.7706 32.3021 30.0563 31.836 30.4267 31.4417C30.7972 31.0473 31.2444 30.733 31.741 30.5182C32.2375 30.3033 32.7729 30.1925 33.3139 30.1925C33.8549 30.1925 34.3902 30.3033 34.8868 30.5182C35.3834 30.733 35.8306 31.0473 36.2011 31.4417C36.5715 31.836 36.8572 32.3021 37.0406 32.8111C37.2239 33.3201 37.3011 33.8613 37.2672 34.4013Z" fill="white"/>
    </g>
</svg>
