<svg width="62" height="62" viewBox="0 0 62 62" fill="none" xmlns="http://www.w3.org/2000/svg">
    <path opacity="0.4" d="M31.3012 50.1839C41.7022 50.1839 50.1338 41.7523 50.1338 31.3514C50.1338 20.9505 41.7022 12.5189 31.3012 12.5189C20.9003 12.5189 12.4688 20.9505 12.4688 31.3514C12.4688 41.7523 20.9003 50.1839 31.3012 50.1839Z" fill="#E52628"/>
    <path d="M20.4787 23.7188H19.7209V38.988H20.4787V23.7188Z" fill="#444545"/>
    <path d="M21.6137 23.7188H20.856V38.988H21.6137V23.7188Z" fill="#444545"/>
    <path d="M22.7505 23.7188H21.9927V38.988H22.7505V23.7188Z" fill="#444545"/>
    <path d="M24.4761 23.7188H23.3567V38.988H24.4761V23.7188Z" fill="#444545"/>
    <path d="M26.987 23.7188H25.22V38.988H26.987V23.7188Z" fill="#444545"/>
    <path d="M29.2706 23.7188H27.8308V38.988H29.2706V23.7188Z" fill="#444545"/>
    <path d="M30.4074 23.7188H29.6497V38.988H30.4074V23.7188Z" fill="#444545"/>
    <path d="M31.7248 23.7188H30.967V38.988H31.7248V23.7188Z" fill="#444545"/>
    <path d="M33.5558 23.7188H32.1487V38.988H33.5558V23.7188Z" fill="#444545"/>
    <path d="M35.0883 23.7188H34.3306V38.988H35.0883V23.7188Z" fill="#444545"/>
    <path d="M37.0655 23.7188H35.6257V38.988H37.0655V23.7188Z" fill="#444545"/>
    <path d="M38.2024 23.7188H37.4446V38.988H38.2024V23.7188Z" fill="#444545"/>
    <path d="M39.5197 23.7188H38.762V38.988H39.5197V23.7188Z" fill="#444545"/>
    <path d="M41.3504 23.7188H39.9434V38.988H41.3504V23.7188Z" fill="#444545"/>
    <path d="M42.8833 23.7188H42.1255V38.988H42.8833V23.7188Z" fill="#444545"/>
</svg>
