<svg width="62" height="62" viewBox="0 0 62 62" fill="none" xmlns="http://www.w3.org/2000/svg">
    <path opacity="0.4" d="M31.0276 51.181C41.4285 51.181 49.8601 42.7494 49.8601 32.3485C49.8601 21.9476 41.4285 13.516 31.0276 13.516C20.6267 13.516 12.1951 21.9476 12.1951 32.3485C12.1951 42.7494 20.6267 51.181 31.0276 51.181Z" fill="#E52628"/>
    <path opacity="0.9" d="M22.7214 36.9277C22.7215 37.0678 22.6805 37.2049 22.6033 37.3218C22.5261 37.4388 22.4163 37.5305 22.2874 37.5855H21.7311C21.5763 37.5255 21.4472 37.4133 21.3663 37.2682C21.2853 37.1232 21.2576 36.9544 21.2878 36.7911C21.318 36.6277 21.4043 36.4801 21.5318 36.3736C21.6593 36.2671 21.8199 36.2084 21.986 36.2078H22.0325C22.2189 36.2132 22.3957 36.2917 22.5246 36.4264C22.6535 36.5612 22.7242 36.7412 22.7214 36.9277Z" fill="#E52628"/>
    <path opacity="0.8" d="M18.3831 31.4442V37.5857H20.4308C20.3224 37.3258 20.2799 37.0431 20.307 36.7629C20.3341 36.4826 20.4299 36.2133 20.5861 35.979C20.7423 35.7447 20.9539 35.5526 21.2021 35.4197C21.4504 35.2868 21.7276 35.2173 22.0092 35.2173C22.2908 35.2173 22.568 35.2868 22.8163 35.4197C23.0645 35.5526 23.2761 35.7447 23.4323 35.979C23.5884 36.2133 23.6843 36.4826 23.7114 36.7629C23.7385 37.0431 23.696 37.3258 23.5876 37.5857H34.7149V31.4442H18.3831ZM33.5524 36.2165H24.1852C24.0355 35.7574 23.7444 35.3574 23.3535 35.0737C22.9627 34.7901 22.4921 34.6374 22.0092 34.6374C21.5263 34.6374 21.0557 34.7901 20.6649 35.0737C20.274 35.3574 19.9829 35.7574 19.8332 36.2165H19.5456V32.8151H33.5524V36.2165Z" fill="#E52628"/>
    <path opacity="0.9" d="M33.5522 32.8152V36.2166H24.1851C24.0353 35.7574 23.7442 35.3574 23.3534 35.0738C22.9625 34.7902 22.492 34.6374 22.009 34.6374C21.5261 34.6374 21.0556 34.7902 20.6647 35.0738C20.2739 35.3574 19.9828 35.7574 19.833 36.2166H19.5454V32.8152H33.5522Z" fill="#E52628"/>
    <path opacity="0.9" d="M23.5635 36.2167C23.4264 35.921 23.2077 35.6707 22.9331 35.4953C22.6584 35.3199 22.3394 35.2267 22.0135 35.2267C21.6876 35.2267 21.3686 35.3199 21.0939 35.4953C20.8193 35.6707 20.6005 35.921 20.4635 36.2167C20.3648 36.4323 20.3118 36.666 20.3076 36.903C20.3035 37.1401 20.3483 37.3755 20.4394 37.5944C20.5299 37.8001 20.6599 37.986 20.8222 38.1414C20.9845 38.2968 21.1759 38.4188 21.3853 38.5003C21.5947 38.5817 21.8181 38.6212 22.0428 38.6163C22.2674 38.6115 22.4889 38.5624 22.6946 38.4719C22.9003 38.3815 23.0862 38.2514 23.2416 38.0891C23.397 37.9268 23.519 37.7354 23.6004 37.526C23.6819 37.3166 23.7214 37.0932 23.7165 36.8685C23.7116 36.6439 23.6626 36.4224 23.5721 36.2167H23.5635ZM22.2873 37.5944C22.1991 37.6319 22.1042 37.6512 22.0083 37.6513C21.8192 37.6542 21.6367 37.582 21.5009 37.4504C21.3651 37.3187 21.2871 37.1386 21.2841 36.9495C21.2812 36.7604 21.3534 36.5778 21.4851 36.442C21.6167 36.3062 21.7968 36.2282 21.9859 36.2253H22.0324C22.1985 36.2259 22.3592 36.2846 22.4867 36.3911C22.6142 36.4976 22.7005 36.6452 22.7307 36.8086C22.7609 36.9719 22.7331 37.1407 22.6522 37.2857C22.5713 37.4308 22.4422 37.543 22.2873 37.6031V37.5944Z" fill="#444545"/>
    <path opacity="0.9" d="M22.7212 36.9278C22.7214 37.0216 22.7032 37.1145 22.6674 37.2012C22.6317 37.2879 22.5792 37.3667 22.513 37.4331C22.4468 37.4995 22.3681 37.5522 22.2815 37.5881C22.1949 37.6241 22.102 37.6426 22.0082 37.6426C21.8191 37.6455 21.6366 37.5732 21.5008 37.4416C21.365 37.31 21.287 37.1298 21.284 36.9407C21.2811 36.7516 21.3533 36.5691 21.4849 36.4333C21.6166 36.2975 21.7967 36.2195 21.9858 36.2166H22.0323C22.2172 36.2219 22.3927 36.2993 22.5214 36.4322C22.65 36.565 22.7217 36.7429 22.7212 36.9278Z" fill="#444545"/>
    <path d="M22.7212 36.9278C22.7214 37.0216 22.7032 37.1145 22.6674 37.2012C22.6317 37.2879 22.5792 37.3667 22.513 37.4331C22.4468 37.4995 22.3681 37.5522 22.2815 37.5881C22.1949 37.6241 22.102 37.6426 22.0082 37.6426C21.8191 37.6455 21.6366 37.5732 21.5008 37.4416C21.365 37.31 21.287 37.1298 21.284 36.9407C21.2811 36.7516 21.3533 36.5691 21.4849 36.4333C21.6166 36.2975 21.7967 36.2195 21.9858 36.2166H22.0323C22.2172 36.2219 22.3927 36.2993 22.5214 36.4322C22.65 36.565 22.7217 36.7429 22.7212 36.9278Z" fill="#444545"/>
    <path opacity="0.8" d="M38.3884 36.9281C38.3886 37.0684 38.3473 37.2057 38.2698 37.3228C38.1923 37.4398 38.082 37.5314 37.9527 37.5859H37.3981C37.2794 37.5358 37.1765 37.4545 37.1003 37.3505C37.0241 37.2466 36.9775 37.1239 36.9655 36.9956C36.9535 36.8673 36.9765 36.7381 37.032 36.6219C37.0875 36.5056 37.1735 36.4065 37.2809 36.3352C37.3882 36.2639 37.5129 36.223 37.6416 36.2169C37.7703 36.2108 37.8983 36.2396 38.0119 36.3005C38.1255 36.3613 38.2205 36.4518 38.2868 36.5623C38.3531 36.6728 38.3882 36.7992 38.3884 36.9281Z" fill="#E52628"/>
    <path opacity="0.8" d="M43.6738 32.9029V37.534L39.2529 37.5857C39.3613 37.3258 39.4038 37.0431 39.3767 36.7629C39.3496 36.4826 39.2537 36.2133 39.0975 35.979C38.9414 35.7447 38.7298 35.5526 38.4815 35.4197C38.2333 35.2868 37.956 35.2173 37.6745 35.2173C37.3929 35.2173 37.1156 35.2868 36.8674 35.4197C36.6191 35.5526 36.4075 35.7447 36.2514 35.979C36.0952 36.2133 35.9993 36.4826 35.9722 36.7629C35.9451 37.0431 35.9877 37.3258 36.096 37.5857H34.7183V26.0588H40.6307L43.6738 32.9029Z" fill="#E52628"/>
    <path opacity="0.9" d="M41.9119 31.2151L36.4749 31.1721V27.0629H40.0622L41.9119 31.2151Z" fill="white"/>
    <path opacity="0.9" d="M37.6753 35.2179C37.3365 35.2172 37.0051 35.3171 36.7231 35.5048C36.4411 35.6926 36.2211 35.9598 36.0911 36.2727C35.9611 36.5855 35.9268 36.9299 35.9926 37.2623C36.0584 37.5946 36.2213 37.9 36.4608 38.1397C36.7002 38.3793 37.0054 38.5426 37.3377 38.6087C37.67 38.6749 38.0144 38.6409 38.3274 38.5112C38.6403 38.3815 38.9078 38.1618 39.0958 37.88C39.2839 37.5981 39.3841 37.2669 39.3838 36.9281C39.3833 36.4749 39.2032 36.0405 38.883 35.7199C38.5627 35.3993 38.1284 35.2188 37.6753 35.2179ZM37.6753 37.6428C37.58 37.6429 37.4856 37.6236 37.398 37.586C37.2376 37.5173 37.1084 37.3915 37.0354 37.233C36.9624 37.0745 36.9509 36.8945 37.003 36.728C37.0551 36.5615 37.1672 36.4202 37.3175 36.3316C37.4678 36.243 37.6457 36.2133 37.8167 36.2484C37.9876 36.2834 38.1395 36.3806 38.2428 36.5212C38.3461 36.6619 38.3936 36.8358 38.376 37.0094C38.3584 37.183 38.277 37.3439 38.1475 37.461C38.0181 37.578 37.8498 37.6428 37.6753 37.6428Z" fill="#444545"/>
    <path opacity="0.9" d="M38.3884 36.9281C38.3884 37.1173 38.3133 37.2988 38.1797 37.4328C38.046 37.5668 37.8646 37.6423 37.6754 37.6428C37.5801 37.6429 37.4857 37.6236 37.3981 37.5859C37.2794 37.5358 37.1765 37.4545 37.1003 37.3505C37.0241 37.2466 36.9775 37.1239 36.9655 36.9956C36.9535 36.8673 36.9765 36.7381 37.032 36.6219C37.0875 36.5056 37.1735 36.4065 37.2809 36.3352C37.3882 36.2639 37.5129 36.223 37.6416 36.2169C37.7703 36.2108 37.8983 36.2396 38.0119 36.3005C38.1255 36.3613 38.2205 36.4518 38.2868 36.5623C38.3531 36.6728 38.3882 36.7992 38.3884 36.9281Z" fill="#444545"/>
    <path d="M38.3884 36.9281C38.3884 37.1173 38.3133 37.2988 38.1797 37.4328C38.046 37.5668 37.8646 37.6423 37.6754 37.6428C37.5801 37.6429 37.4857 37.6236 37.3981 37.5859C37.2794 37.5358 37.1765 37.4545 37.1003 37.3505C37.0241 37.2466 36.9775 37.1239 36.9655 36.9956C36.9535 36.8673 36.9765 36.7381 37.032 36.6219C37.0875 36.5056 37.1735 36.4065 37.2809 36.3352C37.3882 36.2639 37.5129 36.223 37.6416 36.2169C37.7703 36.2108 37.8983 36.2396 38.0119 36.3005C38.1255 36.3613 38.2205 36.4518 38.2868 36.5623C38.3531 36.6728 38.3882 36.7992 38.3884 36.9281Z" fill="#444545"/>
    <path opacity="0.9" d="M35.464 26.0588H34.7131V37.5857H35.464V26.0588Z" fill="#E52628"/>
    <path opacity="0.9" d="M28.7352 26.4205H23.9319V30.9654H28.7352V26.4205Z" fill="#444545"/>
    <path opacity="0.9" d="M28.7352 26.4205H23.9319V27.9791H28.7352V26.4205Z" fill="#444545"/>
    <path d="M26.9787 28.5026L26.8478 28.4768L26.71 28.5026L26.5946 28.4837C26.5667 28.4951 26.5369 28.5015 26.5068 28.5026C26.4672 28.5049 26.4277 28.4978 26.3914 28.482L26.2863 28.5026L26.1417 28.482L26.0452 28.4975L25.9746 28.4768L25.8868 28.5061L25.8093 28.494L25.6887 28.5026V26.4205H26.9787V28.5026Z" fill="white"/>
    <path opacity="0.8" d="M28.4425 29.4241H27.6279V30.6985H28.4425V29.4241Z" fill="#E8E8E8"/>
    <path d="M27.9604 29.5654H27.7192V29.8065H27.9604V29.5654Z" fill="#444545"/>
    <path d="M28.322 29.8702H27.7192V29.9271H28.322V29.8702Z" fill="#444545"/>
    <path d="M28.1291 30.0063H27.7192V30.0631H28.1291V30.0063Z" fill="#444545"/>
    <path opacity="0.9" d="M23.1863 26.4205H18.3831V30.9654H23.1863V26.4205Z" fill="#444545"/>
    <path opacity="0.9" d="M23.1863 26.4205H18.3831V27.9791H23.1863V26.4205Z" fill="#444545"/>
    <path d="M21.4296 28.5026L21.3004 28.4768L21.1609 28.5026L21.0455 28.4837C20.9804 28.5105 20.9074 28.5105 20.8423 28.4837L20.7373 28.5044L20.5926 28.4837L20.4961 28.4992L20.4255 28.4785L20.3394 28.5078L20.2602 28.4957L20.1396 28.5044V26.4205H21.4296V28.5026Z" fill="white"/>
    <path opacity="0.8" d="M22.8935 29.4241H22.0789V30.6985H22.8935V29.4241Z" fill="#E8E8E8"/>
    <path d="M22.4113 29.5654H22.1702V29.8065H22.4113V29.5654Z" fill="#444545"/>
    <path d="M22.7729 29.8702H22.1702V29.9271H22.7729V29.8702Z" fill="#444545"/>
    <path d="M22.5801 30.0063H22.1702V30.0631H22.5801V30.0063Z" fill="#444545"/>
    <path opacity="0.9" d="M34.2706 26.4205H29.4673V30.9654H34.2706V26.4205Z" fill="#444545"/>
    <path opacity="0.9" d="M34.2706 26.4205H29.4673V27.9791H34.2706V26.4205Z" fill="#444545"/>
    <path d="M32.5138 28.5026L32.3846 28.4768L32.2451 28.5026L32.1298 28.4837C32.1019 28.4953 32.0721 28.5017 32.0419 28.5026C32.0024 28.5044 31.963 28.4974 31.9265 28.482L31.8215 28.5026L31.6768 28.482L31.5804 28.4975L31.5098 28.4768L31.4237 28.5061L31.3444 28.494L31.2239 28.5026V26.4205H32.5138V28.5026Z" fill="white"/>
    <path opacity="0.8" d="M33.9794 29.4241H33.1648V30.6985H33.9794V29.4241Z" fill="#E8E8E8"/>
    <path d="M33.4955 29.5654H33.2544V29.8065H33.4955V29.5654Z" fill="#444545"/>
    <path d="M33.8572 29.8702H33.2544V29.9271H33.8572V29.8702Z" fill="#444545"/>
    <path d="M33.6643 30.0063H33.2544V30.0631H33.6643V30.0063Z" fill="#444545"/>
</svg>
