<svg width="62" height="62" viewBox="0 0 62 62" fill="none" xmlns="http://www.w3.org/2000/svg">
    <path opacity="0.4" d="M29.9494 50.2113C40.3504 50.2113 48.782 41.7797 48.782 31.3788C48.782 20.9779 40.3504 12.5463 29.9494 12.5463C19.5485 12.5463 11.1169 20.9779 11.1169 31.3788C11.1169 41.7797 19.5485 50.2113 29.9494 50.2113Z" fill="#E52628"/>
    <path opacity="0.9" d="M29.4518 31.8196H18.793V41.9084H29.4518V31.8196Z" fill="#444545"/>
    <path opacity="0.9" d="M29.4518 31.8196H18.793V35.2778H29.4518V31.8196Z" fill="#444545"/>
    <path d="M25.5542 36.442L25.2649 36.3835L24.9583 36.442L24.7017 36.399C24.6394 36.4249 24.5729 36.4395 24.5054 36.442C24.4173 36.446 24.3295 36.4295 24.2488 36.3938L24.018 36.442L23.6942 36.3938L23.4824 36.4282L23.3257 36.3835L23.1328 36.4472L22.9606 36.4214L22.6919 36.442V31.8196H25.556L25.5542 36.442Z" fill="white"/>
    <path opacity="0.8" d="M28.8025 38.4863H26.9958V41.3159H28.8025V38.4863Z" fill="#E8E8E8"/>
    <path d="M27.7346 38.798H27.199V39.3336H27.7346V38.798Z" fill="#444545"/>
    <path d="M28.5354 39.4751H27.199V39.5991H28.5354V39.4751Z" fill="#444545"/>
    <path d="M28.11 39.7765H27.199V39.9005H28.11V39.7765Z" fill="#444545"/>
    <path opacity="0.9" d="M41.1061 31.8196H30.4473V41.9084H41.1061V31.8196Z" fill="#444545"/>
    <path opacity="0.9" d="M41.1061 31.8196H30.4473V35.2778H41.1061V31.8196Z" fill="#444545"/>
    <path d="M37.2085 36.442L36.9192 36.3835L36.6109 36.442L36.3543 36.399C36.2926 36.4252 36.2267 36.4398 36.1597 36.442C36.0716 36.4461 35.9837 36.4296 35.9031 36.3938L35.6723 36.442L35.3485 36.3938L35.1367 36.4282L34.98 36.3835L34.7871 36.4472L34.6149 36.4214L34.3462 36.442V31.8196H37.2103L37.2085 36.442Z" fill="white"/>
    <path opacity="0.8" d="M40.4568 38.4863H38.6501V41.3159H40.4568V38.4863Z" fill="#E8E8E8"/>
    <path d="M39.3872 38.798H38.8516V39.3336H39.3872V38.798Z" fill="#444545"/>
    <path d="M40.188 39.4751H38.8516V39.5991H40.188V39.4751Z" fill="#444545"/>
    <path d="M39.7626 39.7765H38.8516V39.9005H39.7626V39.7765Z" fill="#444545"/>
    <path opacity="0.9" d="M35.7758 20.8491H25.1169V30.9379H35.7758V20.8491Z" fill="#444545"/>
    <path opacity="0.9" d="M35.7758 20.8491H25.1169V24.3073H35.7758V20.8491Z" fill="#444545"/>
    <path d="M31.8785 25.4716L31.5891 25.413L31.2826 25.4716L31.0259 25.4285C30.9636 25.4545 30.8971 25.4691 30.8296 25.4716C30.7415 25.4755 30.6537 25.459 30.573 25.4233L30.3422 25.4716L30.0202 25.4233L29.8083 25.4578L29.6499 25.413L29.457 25.4767L29.2848 25.4509L29.0161 25.4716V20.8491H31.8785V25.4716Z" fill="white"/>
    <path opacity="0.8" d="M35.1264 27.5159H33.3198V30.3455H35.1264V27.5159Z" fill="#E8E8E8"/>
    <path d="M34.0586 27.8275H33.5229V28.3631H34.0586V27.8275Z" fill="#444545"/>
    <path d="M34.8594 28.5043H33.5229V28.6283H34.8594V28.5043Z" fill="#444545"/>
    <path d="M34.434 28.8057H33.5229V28.9297H34.434V28.8057Z" fill="#444545"/>
</svg>
