<svg width="62" height="62" viewBox="0 0 62 62" fill="none" xmlns="http://www.w3.org/2000/svg">
    <path opacity="0.4" d="M31 49.1643C41.4009 49.1643 49.8325 40.7327 49.8325 30.3318C49.8325 19.9309 41.4009 11.4993 31 11.4993C20.5991 11.4993 12.1675 19.9309 12.1675 30.3318C12.1675 40.7327 20.5991 49.1643 31 49.1643Z" fill="#E52628"/>
    <path opacity="0.6" d="M36.4903 33.8227C36.4903 34.4392 36.3075 35.0419 35.965 35.5545C35.6224 36.0671 35.1356 36.4667 34.566 36.7026C33.9964 36.9385 33.3696 37.0003 32.7649 36.88C32.1603 36.7597 31.6048 36.4628 31.1689 36.0269C30.7329 35.5909 30.436 35.0355 30.3158 34.4308C30.1955 33.8261 30.2572 33.1994 30.4931 32.6298C30.7291 32.0602 31.1286 31.5733 31.6412 31.2308C32.1539 30.8883 32.7566 30.7054 33.3731 30.7054C34.1998 30.7054 34.9927 31.0339 35.5773 31.6185C36.1619 32.2031 36.4903 32.9959 36.4903 33.8227Z" fill="#444545"/>
    <path opacity="0.9" d="M36.2581 36.89C37.0252 36.1565 37.4876 35.1607 37.5529 34.1013C37.6183 33.0419 37.2818 31.9968 36.6106 31.1746C35.9395 30.3523 34.983 29.8134 33.932 29.6652C32.881 29.517 31.8128 29.7706 30.9404 30.3752C30.0681 30.9799 29.4559 31.8912 29.2258 32.9274C28.9957 33.9635 29.1648 35.0483 29.6992 35.9654C30.2336 36.8824 31.0942 37.5642 32.1091 37.8748C33.124 38.1853 34.2188 38.1018 35.1748 37.6409L38.4247 42.5527L39.5252 41.8259L36.2581 36.89ZM30.2562 33.8227C30.2562 33.2062 30.439 32.6035 30.7815 32.0909C31.124 31.5783 31.6109 31.1787 32.1805 30.9428C32.7501 30.7069 33.3769 30.6451 33.9815 30.7654C34.5862 30.8857 35.1417 31.1826 35.5776 31.6185C36.0136 32.0545 36.3104 32.6099 36.4307 33.2146C36.551 33.8193 36.4893 34.446 36.2533 35.0156C36.0174 35.5852 35.6179 36.0721 35.1052 36.4146C34.5926 36.7571 33.9899 36.94 33.3734 36.94C32.5467 36.94 31.7538 36.6115 31.1692 36.0269C30.5846 35.4423 30.2562 34.6495 30.2562 33.8227Z" fill="#E52628"/>
    <path opacity="0.75" d="M42.7301 21.3606V39.1288H40.1175V24.0645H21.8826V39.1288H19.27V21.3606L31.0001 18.1108L42.7301 21.3606Z" fill="#E52628"/>
    <path opacity="0.9" d="M40.1175 24.0646H21.8826V26.5205H40.1175V24.0646Z" fill="#E52628"/>
    <path opacity="0.9" d="M33.9846 21.3727H28.0154V23.1138H33.9846V21.3727Z" fill="#444545"/>
</svg>
