<svg width="62" height="62" viewBox="0 0 62 62" fill="none" xmlns="http://www.w3.org/2000/svg">
    <path opacity="0.4" d="M31.446 49.8566C41.8469 49.8566 50.2785 41.425 50.2785 31.0241C50.2785 20.6232 41.8469 12.1916 31.446 12.1916C21.0451 12.1916 12.6135 20.6232 12.6135 31.0241C12.6135 41.425 21.0451 49.8566 31.446 49.8566Z" fill="#E52628"/>
    <path opacity="0.8" d="M31.446 42.2977C37.6723 42.2977 42.7197 37.2503 42.7197 31.024C42.7197 24.7977 37.6723 19.7503 31.446 19.7503C25.2198 19.7503 20.1724 24.7977 20.1724 31.024C20.1724 37.2503 25.2198 42.2977 31.446 42.2977Z" fill="#E8E8E8"/>
    <path d="M31.446 38.4313V23.6185" stroke="#444545" stroke-width="2" stroke-miterlimit="10"/>
    <path d="M23.8804 31.0259H39.0135" stroke="#444545" stroke-width="2" stroke-miterlimit="10"/>
</svg>
