<svg width="62" height="62" viewBox="0 0 62 62" fill="none" xmlns="http://www.w3.org/2000/svg">
    <path opacity="0.4" d="M31 50.0875C41.4009 50.0875 49.8325 41.6559 49.8325 31.255C49.8325 20.8541 41.4009 12.4225 31 12.4225C20.5991 12.4225 12.1675 20.8541 12.1675 31.255C12.1675 41.6559 20.5991 50.0875 31 50.0875Z" fill="#E52628"/>
    <path opacity="0.7" d="M38.5517 28.6854C38.535 28.2234 38.4873 27.7631 38.4087 27.3076C38.3415 26.9356 38.2813 26.6945 38.2813 26.6945C37.9842 25.8288 37.5383 25.0216 36.9638 24.3092C36.8019 24.1129 34.5819 21.4865 31.0755 21.5089C30.0775 21.5335 29.0928 21.7438 28.1718 22.1289C27.167 22.5426 26.2596 23.1614 25.5075 23.9458C25.274 24.1934 25.0609 24.4595 24.8703 24.7415C24.5144 25.2533 24.2202 25.8054 23.9937 26.3862C23.6326 27.26 23.4465 28.1962 23.446 29.1418C23.4833 29.9914 23.6494 30.8305 23.9386 31.6304C24.6275 33.5248 27.1006 37.0209 30.9584 40.9993C35.226 36.9951 37.6871 33.2751 38.1745 31.515C38.423 30.5922 38.5498 29.641 38.5517 28.6854ZM31.0755 32.0695C30.4964 32.0695 29.9304 31.8978 29.4489 31.5761C28.9674 31.2544 28.5922 30.7971 28.3706 30.2622C28.149 29.7272 28.091 29.1385 28.204 28.5706C28.3169 28.0026 28.5958 27.481 29.0052 27.0715C29.4147 26.662 29.9364 26.3832 30.5043 26.2702C31.0722 26.1573 31.6609 26.2152 32.1959 26.4368C32.7309 26.6584 33.1881 27.0337 33.5098 27.5152C33.8316 27.9966 34.0033 28.5627 34.0033 29.1418C34.0033 29.9183 33.6948 30.6629 33.1457 31.212C32.5967 31.7611 31.852 32.0695 31.0755 32.0695Z" fill="#444545"/>
    <path opacity="0.3" d="M34.0035 29.1418C34.0035 29.7208 33.8318 30.2869 33.5101 30.7684C33.1884 31.2498 32.7311 31.6251 32.1961 31.8467C31.6612 32.0683 31.0725 32.1263 30.5045 32.0133C29.9366 31.9003 29.4149 31.6215 29.0055 31.212C28.596 30.8026 28.3172 30.2809 28.2042 29.7129C28.0912 29.145 28.1492 28.5563 28.3708 28.0214C28.5924 27.4864 28.9677 27.0291 29.4491 26.7074C29.9306 26.3857 30.4967 26.214 31.0757 26.214C31.8522 26.214 32.5969 26.5224 33.146 27.0715C33.695 27.6206 34.0035 28.3653 34.0035 29.1418Z" fill="#444545"/>
</svg>
