<svg width="63" height="63" viewBox="0 0 63 63" fill="none" xmlns="http://www.w3.org/2000/svg">
    <path d="M11.9577 19.7542H10.6365V46.4102H11.9577V19.7542Z" fill="#444545"/>
    <path d="M13.9421 19.7542H12.6208V46.4102H13.9421V19.7542Z" fill="#444545"/>
    <path d="M15.925 19.7542H14.6038V46.4102H15.925V19.7542Z" fill="#444545"/>
    <path d="M18.9366 19.7542H16.9836V46.4102H18.9366V19.7542Z" fill="#444545"/>
    <path d="M23.3223 19.7542H20.2371V46.4102H23.3223V19.7542Z" fill="#444545"/>
    <path d="M27.3104 19.7542H24.7974V46.4102H27.3104V19.7542Z" fill="#444545"/>
    <path d="M29.2915 19.7542H27.9702V46.4102H29.2915V19.7542Z" fill="#444545"/>
    <path d="M31.5927 19.7542H30.2715V46.4102H31.5927V19.7542Z" fill="#444545"/>
    <path d="M34.79 19.7542H32.3347V46.4102H34.79V19.7542Z" fill="#444545"/>
    <path d="M37.4641 19.7542H36.1428V46.4102H37.4641V19.7542Z" fill="#444545"/>
    <path d="M40.9168 19.7542H38.4038V46.4102H40.9168V19.7542Z" fill="#444545"/>
    <path d="M42.8994 19.7542H41.5781V46.4102H42.8994V19.7542Z" fill="#444545"/>
    <path d="M45.2009 19.7542H43.8796V46.4102H45.2009V19.7542Z" fill="#444545"/>
    <path d="M48.3962 19.7542H45.9409V46.4102H48.3962V19.7542Z" fill="#444545"/>
    <path d="M51.072 19.7542H49.7507V46.4102H51.072V19.7542Z" fill="#444545"/>
</svg>
