<svg width="62" height="62" viewBox="0 0 62 62" fill="none" xmlns="http://www.w3.org/2000/svg">
    <path opacity="0.7" d="M53.6421 43.8314V42.009H8V43.8314H10.3523V46.8531H8V48.6708H53.6421V46.8485H51.8941V43.8267L53.6421 43.8314ZM28.571 46.8531H14.857V43.8314H28.571V46.8531ZM47.3987 46.8531H33.0711V43.8314H47.3964L47.3987 46.8531Z" fill="#E52628"/>
    <path opacity="0.9" d="M30.8211 27.4113H16.4353V41.0276H30.8211V27.4113Z" fill="#444545"/>
    <path opacity="0.9" d="M30.8211 27.4113H16.4353V32.0787H30.8211V27.4113Z" fill="#444545"/>
    <path opacity="0.8" d="M25.5609 33.65L25.1704 33.5732L24.7544 33.65L24.408 33.5942C24.3242 33.6275 24.2354 33.6463 24.1454 33.65C24.0267 33.6546 23.9085 33.6332 23.799 33.5872L23.4875 33.65L23.0506 33.5872L22.7647 33.6337L22.5531 33.5732L22.2928 33.6569L22.0604 33.6221L21.6978 33.65V27.4113H25.5632L25.5609 33.65Z" fill="white"/>
    <path opacity="0.8" d="M29.9447 36.4094H27.5063V40.2284H29.9447V36.4094Z" fill="#E8E8E8"/>
    <path d="M28.5037 36.8298H27.7808V37.5527H28.5037V36.8298Z" fill="#444545"/>
    <path d="M29.5845 37.7433H27.7808V37.9107H29.5845V37.7433Z" fill="#444545"/>
    <path d="M29.0104 38.1499H27.7808V38.3172H29.0104V38.1499Z" fill="#444545"/>
    <path opacity="0.9" d="M46.2459 27.4113H31.8601V41.0276H46.2459V27.4113Z" fill="#444545"/>
    <path opacity="0.9" d="M46.2459 27.4113H31.8601V32.0787H46.2459V27.4113Z" fill="#444545"/>
    <path opacity="0.8" d="M40.9856 33.65L40.5974 33.5732L40.1814 33.65L39.835 33.5942C39.7504 33.6272 39.6608 33.646 39.57 33.65C39.4521 33.655 39.3346 33.6335 39.226 33.5872L38.9122 33.65L38.4776 33.5872L38.1917 33.6337L37.9778 33.5732L37.7175 33.6569L37.485 33.6221L37.1248 33.65V27.4113H40.9879L40.9856 33.65Z" fill="white"/>
    <path opacity="0.8" d="M45.3719 36.4094H42.9336V40.2284H45.3719V36.4094Z" fill="#E8E8E8"/>
    <path d="M43.9285 36.8298H43.2056V37.5527H43.9285V36.8298Z" fill="#444545"/>
    <path d="M45.0093 37.7433H43.2056V37.9107H45.0093V37.7433Z" fill="#444545"/>
    <path d="M44.4352 38.1499H43.2056V38.3172H44.4352V38.1499Z" fill="#444545"/>
    <path opacity="0.9" d="M46.2459 13H31.8601V26.6164H46.2459V13Z" fill="#444545"/>
    <path opacity="0.9" d="M46.2459 13H31.8601V17.6674H46.2459V13Z" fill="#444545"/>
    <path opacity="0.8" d="M40.9856 19.2387L40.5974 19.1504L40.1814 19.2294L39.835 19.1713C39.7509 19.2064 39.6611 19.2261 39.57 19.2294C39.4518 19.2351 39.334 19.2128 39.226 19.1643L38.9122 19.2294L38.4776 19.1643L38.1917 19.2108L37.9778 19.1504L37.7175 19.2364L37.485 19.2015L37.1248 19.2294V13H40.9879L40.9856 19.2387Z" fill="white"/>
    <path opacity="0.8" d="M45.3719 21.9982H42.9336V25.8172H45.3719V21.9982Z" fill="#E8E8E8"/>
    <path d="M43.9285 22.4186H43.2056V23.1415H43.9285V22.4186Z" fill="#444545"/>
    <path d="M45.0093 23.332H43.2056V23.4994H45.0093V23.332Z" fill="#444545"/>
    <path d="M44.4352 23.7386H43.2056V23.906H44.4352V23.7386Z" fill="#444545"/>
    <path opacity="0.9" d="M30.8211 13H16.4353V26.6164H30.8211V13Z" fill="#444545"/>
    <path opacity="0.9" d="M30.8211 13H16.4353V17.6674H30.8211V13Z" fill="#444545"/>
    <path opacity="0.8" d="M25.5609 19.2387L25.1704 19.1597L24.7544 19.2387L24.408 19.1806C24.3248 19.216 24.2357 19.2357 24.1454 19.2387C24.0264 19.244 23.9079 19.2217 23.799 19.1736L23.4875 19.2387L23.0506 19.1736L22.7647 19.2201L22.5531 19.1597L22.2928 19.2457L22.0604 19.2108L21.6978 19.2387V13H25.5632L25.5609 19.2387Z" fill="white"/>
    <path opacity="0.8" d="M29.9447 21.9982H27.5063V25.8172H29.9447V21.9982Z" fill="#E8E8E8"/>
    <path d="M28.5037 22.4186H27.7808V23.1415H28.5037V22.4186Z" fill="#444545"/>
    <path d="M29.5845 23.332H27.7808V23.4994H29.5845V23.332Z" fill="#444545"/>
    <path d="M29.0104 23.7386H27.7808V23.906H29.0104V23.7386Z" fill="#444545"/>
</svg>
