<svg width="16" height="16" viewBox="0 0 16 16" fill="none" xmlns="http://www.w3.org/2000/svg">
    <path fill-rule="evenodd" clip-rule="evenodd" d="M8.00625 1.22559C4.2649 1.22559 1.23193 4.25855 1.23193 7.9999C1.23193 11.7413 4.2649 14.7742 8.00625 14.7742C11.7476 14.7742 14.7806 11.7413 14.7806 7.9999C14.7806 4.25855 11.7476 1.22559 8.00625 1.22559ZM8.00625 13.8504C4.77508 13.8504 2.1557 11.2311 2.1557 7.9999C2.1557 4.76873 4.77508 2.14936 8.00625 2.14936C11.2374 2.14936 13.8568 4.76873 13.8568 7.9999C13.8568 11.2311 11.2374 13.8504 8.00625 13.8504Z" fill="#989A9C"/>
    <path fill-rule="evenodd" clip-rule="evenodd" d="M11.0855 7.69198H8.31417V4.30482C8.31417 4.04973 8.10738 3.84294 7.85229 3.84294C7.5972 3.84294 7.3904 4.04973 7.3904 4.30482V8.61575H11.0855C11.3406 8.61575 11.5474 8.40896 11.5474 8.15386C11.5474 7.89877 11.3406 7.69198 11.0855 7.69198Z" fill="#989A9C"/>
    <path fill-rule="evenodd" clip-rule="evenodd" d="M8.00625 1.22559C4.2649 1.22559 1.23193 4.25855 1.23193 7.9999C1.23193 11.7413 4.2649 14.7742 8.00625 14.7742C11.7476 14.7742 14.7806 11.7413 14.7806 7.9999C14.7806 4.25855 11.7476 1.22559 8.00625 1.22559ZM8.00625 13.8504C4.77508 13.8504 2.1557 11.2311 2.1557 7.9999C2.1557 4.76873 4.77508 2.14936 8.00625 2.14936C11.2374 2.14936 13.8568 4.76873 13.8568 7.9999C13.8568 11.2311 11.2374 13.8504 8.00625 13.8504Z" stroke="#989A9C" stroke-width="0.75"/>
    <path fill-rule="evenodd" clip-rule="evenodd" d="M11.0855 7.69198H8.31417V4.30482C8.31417 4.04973 8.10738 3.84294 7.85229 3.84294C7.5972 3.84294 7.3904 4.04973 7.3904 4.30482V8.61575H11.0855C11.3406 8.61575 11.5474 8.40896 11.5474 8.15386C11.5474 7.89877 11.3406 7.69198 11.0855 7.69198Z" stroke="#989A9C" stroke-width="0.75"/>
</svg>
