<svg width="16" height="16" viewBox="0 0 16 16" fill="none" xmlns="http://www.w3.org/2000/svg">
    <path fill-rule="evenodd" clip-rule="evenodd" d="M12.0516 8.72934H7.99982V12.3759H12.0516V8.72934ZM11.2414 2.16542H4.7586V0.706787H3.1379V2.16542H2.32755C1.42806 2.16542 0.714952 2.8218 0.714952 3.62405L0.706848 13.8345C0.706848 14.6367 1.42806 15.2931 2.32755 15.2931H13.6725C14.5638 15.2931 15.2931 14.6367 15.2931 13.8345V3.62405C15.2931 2.8218 14.5638 2.16542 13.6725 2.16542H12.8621V0.706787H11.2414V2.16542ZM13.6723 13.8344H2.32742V5.8119H13.6723V13.8344Z" fill="#989A9C"/>
    <path d="M0 0V-1H-1V0H0ZM16 0H17V-1H16V0ZM16 16V17H17V16H16ZM0 16H-1V17H0V16ZM0 1H16V-1H0V1ZM15 0V16H17V0H15ZM16 15H0V17H16V15ZM1 16V0H-1V16H1Z" fill="white"/>
</svg>
