<svg width="62" height="62" viewBox="0 0 62 62" fill="none" xmlns="http://www.w3.org/2000/svg">
    <path opacity="0.4" d="M28.9473 51.732C39.3482 51.732 47.7798 43.3004 47.7798 32.8995C47.7798 22.4986 39.3482 14.067 28.9473 14.067C18.5463 14.067 10.1147 22.4986 10.1147 32.8995C10.1147 43.3004 18.5463 51.732 28.9473 51.732Z" fill="#E52628"/>
    <path opacity="0.5" d="M37.827 38.5776L21.4211 38.6465C20.8619 34.7072 20.3028 30.769 19.7437 26.832H40.4361L37.827 38.5776Z" fill="#444545"/>
    <path d="M20.6668 43.2981H20.6616V43.2964L20.6668 43.2981Z" fill="#E52628"/>
    <path d="M20.6668 43.2981H20.6616V43.2964L20.6668 43.2981Z" fill="#E52628"/>
    <path d="M20.7822 42.0668L20.6616 42.6127V42.6007L20.7822 42.0668Z" fill="#E52628"/>
    <path opacity="0.9" d="M24.9619 43.2811C25.6448 43.2811 26.1985 42.7275 26.1985 42.0445C26.1985 41.3616 25.6448 40.808 24.9619 40.808C24.279 40.808 23.7253 41.3616 23.7253 42.0445C23.7253 42.7275 24.279 43.2811 24.9619 43.2811Z" fill="#444545"/>
    <path opacity="0.9" d="M34.3257 43.2811C35.0086 43.2811 35.5622 42.7275 35.5622 42.0445C35.5622 41.3616 35.0086 40.808 34.3257 40.808C33.6427 40.808 33.0891 41.3616 33.0891 42.0445C33.0891 42.7275 33.6427 43.2811 34.3257 43.2811Z" fill="#444545"/>
    <path opacity="0.7" d="M22.5491 38.6327L21.409 38.6464L19.2494 23.4823H17.4583C17.4583 23.1654 17.4583 22.8468 17.4583 22.5299L20.2293 22.5006C20.4308 23.8319 22.3494 37.3014 22.5491 38.6327Z" fill="#444545"/>
    <path opacity="0.7" d="M37.8684 39.139H21.4194V40.2895H37.8684V39.139Z" fill="#444545"/>
</svg>
