<svg width="62" height="62" viewBox="0 0 62 62" fill="none" xmlns="http://www.w3.org/2000/svg">
    <path opacity="0.4" d="M31.8699 49.6206C42.2708 49.6206 50.7024 41.189 50.7024 30.7881C50.7024 20.3872 42.2708 11.9556 31.8699 11.9556C21.469 11.9556 13.0374 20.3872 13.0374 30.7881C13.0374 41.189 21.469 49.6206 31.8699 49.6206Z" fill="#E52628"/>
    <path opacity="0.7" d="M41.6107 23.3549H22.1272V38.2194H41.6107V23.3549Z" fill="#444545"/>
    <path opacity="0.9" d="M41.6108 23.3549H36.1824V38.2194H41.6108V23.3549Z" fill="#444545"/>
    <path opacity="0.8" d="M34.3342 24.9392H30.9346V30.2626H34.3342V24.9392Z" fill="#E8E8E8"/>
    <path d="M32.3227 25.5267H31.3152V26.5342H32.3227V25.5267Z" fill="#444545"/>
    <path d="M33.8296 26.7993H31.3152V27.0335H33.8296V26.7993Z" fill="#444545"/>
    <path d="M33.0271 27.366H31.3152V27.6002H33.0271V27.366Z" fill="#444545"/>
</svg>
