<svg width="62" height="62" viewBox="0 0 62 62" fill="none" xmlns="http://www.w3.org/2000/svg">
    <path opacity="0.4" d="M30.8325 49.665C41.2334 49.665 49.665 41.2334 49.665 30.8325C49.665 20.4316 41.2334 12 30.8325 12C20.4316 12 12 20.4316 12 30.8325C12 41.2334 20.4316 49.665 30.8325 49.665Z" fill="#E52628"/>
    <path opacity="0.8" d="M41.4243 35.8924H20.241C20.241 33.0834 21.3569 30.3893 23.3432 28.403C25.3295 26.4167 28.0236 25.3008 30.8326 25.3008C33.6417 25.3008 36.3358 26.4167 38.3221 28.403C40.3084 30.3893 41.4243 33.0834 41.4243 35.8924Z" fill="#444545"/>
    <path opacity="0.9" d="M32.4101 33.3417H29.1999L28.6367 24.238H33.0267L32.4101 33.3417Z" fill="#444545"/>
    <path opacity="0.9" d="M43.0603 35.0107H18.6064V37.427H43.0603V35.0107Z" fill="#444545"/>
</svg>
