<svg width="62" height="62" viewBox="0 0 62 62" fill="none" xmlns="http://www.w3.org/2000/svg">
    <path opacity="0.4" d="M32.6982 49.1643C43.0991 49.1643 51.5307 40.7327 51.5307 30.3318C51.5307 19.9309 43.0991 11.4993 32.6982 11.4993C22.2973 11.4993 13.8657 19.9309 13.8657 30.3318C13.8657 40.7327 22.2973 49.1643 32.6982 49.1643Z" fill="#E52628"/>
    <path opacity="0.75" d="M32.9359 45.136C40.9276 45.136 47.4061 38.6575 47.4061 30.6658C47.4061 22.6742 40.9276 16.1957 32.9359 16.1957C24.9443 16.1957 18.4658 22.6742 18.4658 30.6658C18.4658 38.6575 24.9443 45.136 32.9359 45.136Z" fill="#E52628"/>
    <path d="M28.8767 30.1061H21.8V31.2273H28.8767V30.1061Z" fill="#444545"/>
    <path d="M44.0717 30.1061H36.9951V31.2273H44.0717V30.1061Z" fill="#444545"/>
    <path d="M39.9749 27.1286V34.2052H41.096V27.1286H39.9749Z" fill="#444545"/>
    <path d="M31.286 35.2451H30.0374L33.871 26.0863L35.0938 26.1483L31.286 35.2451Z" fill="#444545"/>
</svg>
