<svg width="62" height="62" viewBox="0 0 62 62" fill="none" xmlns="http://www.w3.org/2000/svg">
    <path opacity="0.4" d="M31.6252 47.0062C42.0261 47.0062 50.4577 38.5746 50.4577 28.1737C50.4577 17.7728 42.0261 9.34119 31.6252 9.34119C21.2243 9.34119 12.7927 17.7728 12.7927 28.1737C12.7927 38.5746 21.2243 47.0062 31.6252 47.0062Z" fill="#E52628"/>
    <path opacity="0.7" d="M41.1786 17.7782H22.0706V38.5689H41.1786V17.7782Z" fill="#444545"/>
    <path opacity="0.9" d="M39.6351 19.0287H23.615V22.6505H39.6351V19.0287Z" fill="white"/>
    <path opacity="0.8" d="M27.1269 23.4928H23.6394V26.9803H27.1269V23.4928Z" fill="#E52628"/>
    <path opacity="0.8" d="M31.3049 23.4928H27.8174V26.9803H31.3049V23.4928Z" fill="#E52628"/>
    <path opacity="0.8" d="M27.1269 28.1427H23.6394V31.6302H27.1269V28.1427Z" fill="#E52628"/>
    <path opacity="0.8" d="M31.3049 28.1427H27.8174V31.6302H31.3049V28.1427Z" fill="#E52628"/>
    <path opacity="0.8" d="M27.1269 32.9357H23.6394V36.4232H27.1269V32.9357Z" fill="#E52628"/>
    <path opacity="0.8" d="M31.3049 32.9357H27.8174V36.4232H31.3049V32.9357Z" fill="#E52628"/>
    <path opacity="0.8" d="M35.4331 28.1599H31.9456V31.6474H35.4331V28.1599Z" fill="#E52628"/>
    <path opacity="0.8" d="M39.6096 28.1427H36.1221V36.4404H39.6096V28.1427Z" fill="#444545"/>
    <path opacity="0.8" d="M35.4331 32.9528H31.9456V36.4403H35.4331V32.9528Z" fill="#E52628"/>
    <path opacity="0.8" d="M35.4331 23.4928H31.9456V26.9803H35.4331V23.4928Z" fill="#E52628"/>
    <path opacity="0.8" d="M39.6096 23.4928H36.1221V26.9803H39.6096V23.4928Z" fill="#E52628"/>
</svg>
