<svg width="62" height="62" viewBox="0 0 62 62" fill="none" xmlns="http://www.w3.org/2000/svg">
    <path opacity="0.4" d="M31.0569 50.2768C41.4578 50.2768 49.8894 41.8452 49.8894 31.4443C49.8894 21.0434 41.4578 12.6118 31.0569 12.6118C20.656 12.6118 12.2244 21.0434 12.2244 31.4443C12.2244 41.8452 20.656 50.2768 31.0569 50.2768Z" fill="#E52628"/>
    <path d="M31 31.1654C33.8801 31.1654 36.2149 28.8306 36.2149 25.9505C36.2149 23.0704 33.8801 20.7356 31 20.7356C28.1199 20.7356 25.7852 23.0704 25.7852 25.9505C25.7852 28.8306 28.1199 31.1654 31 31.1654Z" fill="#444545"/>
    <path d="M40.4034 41.263H21.5967C21.5967 38.769 22.5874 36.3773 24.3509 34.6138C26.1143 32.8503 28.5061 31.8596 31 31.8596C33.4939 31.8596 35.8857 32.8503 37.6492 34.6138C39.4126 36.3773 40.4034 38.769 40.4034 41.263Z" fill="#444545"/>
</svg>
