<svg width="62" height="62" viewBox="0 0 62 62" fill="none" xmlns="http://www.w3.org/2000/svg">
    <path opacity="0.4" d="M31.4272 52.4468C41.8281 52.4468 50.2597 44.0152 50.2597 33.6142C50.2597 23.2133 41.8281 14.7817 31.4272 14.7817C21.0263 14.7817 12.5947 23.2133 12.5947 33.6142C12.5947 44.0152 21.0263 52.4468 31.4272 52.4468Z" fill="#E52628"/>
    <path opacity="0.7" d="M34.3585 22.9055H28.9731C28.649 22.9055 28.3281 22.9694 28.0286 23.0934C27.7292 23.2174 27.4571 23.3992 27.228 23.6284C26.9988 23.8575 26.817 24.1296 26.693 24.429C26.569 24.7284 26.5051 25.0494 26.5051 25.3735V30.5884H27.9673V25.3752C27.9682 25.1087 28.0745 24.8534 28.2629 24.665C28.4513 24.4766 28.7066 24.3703 28.9731 24.3694H34.3585C34.6249 24.3703 34.8802 24.4766 35.0687 24.665C35.2571 24.8534 35.3633 25.1087 35.3642 25.3752V26.6514C35.3642 26.7427 35.4005 26.8303 35.4651 26.8949C35.5297 26.9595 35.6173 26.9958 35.7087 26.9958H36.4785C36.5699 26.9958 36.6575 26.9595 36.7221 26.8949C36.7867 26.8303 36.823 26.7427 36.823 26.6514V25.3786C36.8236 25.0544 36.7604 24.7332 36.6369 24.4334C36.5134 24.1336 36.332 23.8611 36.1032 23.6314C35.8743 23.4017 35.6024 23.2194 35.303 23.0949C35.0037 22.9703 34.6827 22.906 34.3585 22.9055Z" fill="#444545"/>
    <path opacity="0.9" d="M36.8333 30.59H26.0229C25.2164 30.59 24.5625 31.2438 24.5625 32.0504V42.8608C24.5625 43.6674 25.2164 44.3212 26.0229 44.3212H36.8333C37.6399 44.3212 38.2938 43.6674 38.2938 42.8608V32.0504C38.2938 31.2438 37.6399 30.59 36.8333 30.59Z" fill="#444545"/>
</svg>
