<svg width="62" height="62" viewBox="0 0 62 62" fill="none" xmlns="http://www.w3.org/2000/svg">
    <path opacity="0.4" d="M33.6575 49.271C44.0584 49.271 52.49 40.8394 52.49 30.4385C52.49 20.0376 44.0584 11.606 33.6575 11.606C23.2565 11.606 14.825 20.0376 14.825 30.4385C14.825 40.8394 23.2565 49.271 33.6575 49.271Z" fill="#E52628"/>
    <path d="M43.2158 23.1172V40.8527H24.0991V20.0224H40.121L43.2158 23.1172Z" fill="#E8E8E8"/>
    <path d="M43.2157 23.1172H40.1208V20.0224L43.2157 23.1172Z" fill="#444545"/>
    <path d="M33.5024 30.0768H25.3115V31.0258H33.5024V30.0768Z" fill="#454646"/>
    <path d="M33.5024 27.8036H25.3115V28.7525H33.5024V27.8036Z" fill="#454646"/>
    <path d="M33.5024 34.6217H25.3115V35.5706H33.5024V34.6217Z" fill="#454646"/>
    <path d="M33.5024 32.3486H25.3115V33.2976H33.5024V32.3486Z" fill="#454646"/>
    <path d="M38.2694 33.9879C37.9296 33.993 37.5928 33.9236 37.2826 33.7847C37.0016 33.6556 36.7571 33.4585 36.5713 33.2112C36.3813 32.9534 36.2593 32.6519 36.2166 32.3346L37.0777 32.1968C37.1358 32.4768 37.2907 32.7274 37.5151 32.9046C37.7443 33.0823 38.0278 33.1753 38.3177 33.1681C38.5808 33.1788 38.8405 33.1045 39.0582 32.9563C39.1474 32.8975 39.2205 32.8174 39.271 32.7233C39.3215 32.6292 39.3478 32.524 39.3476 32.4172C39.3502 32.3492 39.3394 32.2813 39.3158 32.2175C39.2921 32.1537 39.2561 32.0951 39.2098 32.0452C39.0837 31.9313 38.9318 31.8497 38.7672 31.8076L37.5099 31.4166C36.7786 31.187 36.4123 30.7421 36.4112 30.0819C36.4014 29.7982 36.4775 29.5181 36.6296 29.2784C36.7818 29.0387 37.0028 28.8505 37.2637 28.7386C37.8625 28.4938 38.5334 28.4938 39.1323 28.7386C39.393 28.8543 39.6217 29.0316 39.7988 29.2552C39.9837 29.4967 40.1131 29.7761 40.1777 30.0733L39.2821 30.2455C39.2549 30.0827 39.1907 29.9284 39.0944 29.7943C38.9959 29.6643 38.8678 29.5598 38.7207 29.4895C38.5637 29.4158 38.3929 29.3764 38.2195 29.3741C38.0572 29.3688 37.8955 29.3963 37.7442 29.455C37.6143 29.5042 37.4996 29.5868 37.4118 29.6944C37.3317 29.7913 37.2878 29.9131 37.2878 30.0389C37.2874 30.109 37.3027 30.1782 37.3325 30.2417C37.3623 30.3052 37.4058 30.3612 37.46 30.4057C37.6215 30.5301 37.8076 30.6187 38.0059 30.6657L38.9446 30.9379C39.3132 31.0211 39.6513 31.2054 39.9211 31.47C40.1297 31.7177 40.2367 32.0352 40.2207 32.3587C40.2289 32.6637 40.1442 32.964 39.9779 33.2198C39.8065 33.4713 39.5678 33.6695 39.289 33.7916C38.9677 33.9311 38.6196 33.9981 38.2694 33.9879ZM37.8131 28.7989V27.9377H38.6862V28.7989H37.8131ZM37.8131 34.5993V33.7382H38.6862V34.5993H37.8131Z" fill="#444545"/>
    <path d="M41.3127 42.3769V38.197" stroke="#444545" stroke-miterlimit="10"/>
    <path d="M39.1772 40.288H43.4484" stroke="#444545" stroke-miterlimit="10"/>
    <path d="M41.3128 43.4689C43.0696 43.4689 44.4937 42.0448 44.4937 40.288C44.4937 38.5312 43.0696 37.1071 41.3128 37.1071C39.556 37.1071 38.1318 38.5312 38.1318 40.288C38.1318 42.0448 39.556 43.4689 41.3128 43.4689Z" stroke="#444545" stroke-miterlimit="10"/>
</svg>
