<svg width="62" height="62" viewBox="0 0 62 62" fill="none" xmlns="http://www.w3.org/2000/svg">
    <path opacity="0.4" d="M31.9487 50.902C42.3496 50.902 50.7812 42.4705 50.7812 32.0696C50.7812 21.6687 42.3496 13.2371 31.9487 13.2371C21.5478 13.2371 13.1162 21.6687 13.1162 32.0696C13.1162 42.4705 21.5478 50.902 31.9487 50.902Z" fill="#E52628"/>
    <path opacity="0.9" d="M24.2365 36.9006C24.2366 37.0421 24.1952 37.1804 24.1174 37.2986C24.0397 37.4167 23.929 37.5095 23.7991 37.5654H23.2359C23.0874 37.4998 22.9653 37.386 22.8896 37.2424C22.814 37.0987 22.789 36.9337 22.819 36.7741C22.8489 36.6145 22.9319 36.4698 23.0545 36.3633C23.1771 36.2568 23.332 36.1949 23.4942 36.1876H23.5407C23.7265 36.193 23.903 36.2704 24.0328 36.4034C24.1627 36.5364 24.2357 36.7147 24.2365 36.9006Z" fill="#E52628"/>
    <path opacity="0.8" d="M19.8569 25.5114V37.5669H21.9236C21.8166 37.3054 21.7755 37.0215 21.8041 36.7403C21.8327 36.4592 21.9301 36.1894 22.0876 35.9548C22.2451 35.7201 22.4579 35.5278 22.7073 35.3949C22.9567 35.2619 23.2349 35.1924 23.5175 35.1924C23.8001 35.1924 24.0784 35.2619 24.3278 35.3949C24.5771 35.5278 24.7899 35.7201 24.9475 35.9548C25.105 36.1894 25.2023 36.4592 25.2309 36.7403C25.2595 37.0215 25.2185 37.3054 25.1114 37.5669H36.3386V25.5114H19.8569ZM35.1727 36.1891H25.7142C25.5636 35.7251 25.2699 35.3207 24.8753 35.0339C24.4807 34.7471 24.0054 34.5926 23.5175 34.5926C23.0297 34.5926 22.5544 34.7471 22.1597 35.0339C21.7651 35.3207 21.4714 35.7251 21.3208 36.1891H21.0298V26.8943H35.1727V36.1891Z" fill="#E52628"/>
    <path opacity="0.9" d="M35.1724 26.8944V36.1824H25.714C25.5634 35.7183 25.2697 35.3139 24.8751 35.0271C24.4805 34.7403 24.0051 34.5858 23.5173 34.5858C23.0294 34.5858 22.5541 34.7403 22.1595 35.0271C21.7649 35.3139 21.4712 35.7183 21.3206 36.1824H21.0295V26.8944H35.1724Z" fill="#E52628"/>
    <path opacity="0.9" d="M35.1724 26.8944V36.1824H25.714C25.5634 35.7183 25.2697 35.3139 24.8751 35.0271C24.4805 34.7403 24.0051 34.5858 23.5173 34.5858C23.0294 34.5858 22.5541 34.7403 22.1595 35.0271C21.7649 35.3139 21.4712 35.7183 21.3206 36.1824H21.0295V26.8944H35.1724Z" fill="#E52628"/>
    <path opacity="0.9" d="M25.0875 36.1823C24.9105 35.7962 24.597 35.4891 24.2073 35.3201C23.8176 35.1511 23.3792 35.132 22.9764 35.2666C22.5735 35.4012 22.2346 35.6799 22.0247 36.0492C21.8148 36.4185 21.7488 36.8523 21.8394 37.2673C21.93 37.6823 22.1707 38.0491 22.5153 38.2974C22.86 38.5457 23.2842 38.6579 23.7065 38.6124C24.1288 38.5669 24.5194 38.3669 24.8033 38.0509C25.0871 37.7349 25.2442 37.3252 25.2442 36.9004C25.244 36.6526 25.1905 36.4077 25.0875 36.1823ZM23.7993 37.56C23.6897 37.6065 23.5703 37.625 23.4518 37.6139C23.3333 37.6029 23.2193 37.5626 23.1202 37.4968C23.0211 37.4309 22.9398 37.3415 22.8837 37.2365C22.8276 37.1315 22.7984 37.0143 22.7987 36.8953C22.7981 36.7096 22.8696 36.531 22.9981 36.3971C23.1266 36.2631 23.3021 36.1842 23.4876 36.1771H23.5341C23.7196 36.1842 23.8951 36.2631 24.0236 36.3971C24.1521 36.531 24.2235 36.7096 24.223 36.8953C24.2252 37.036 24.1863 37.1744 24.1111 37.2934C24.0358 37.4124 23.9275 37.5069 23.7993 37.5652V37.56Z" fill="#444545"/>
    <path opacity="0.9" d="M24.2368 36.9004C24.2415 36.9978 24.2265 37.0951 24.1925 37.1865C24.1585 37.2779 24.1063 37.3614 24.0391 37.4321C23.9718 37.5027 23.891 37.5589 23.8013 37.5973C23.7117 37.6357 23.6152 37.6555 23.5177 37.6555C23.4202 37.6555 23.3238 37.6357 23.2341 37.5973C23.1445 37.5589 23.0636 37.5027 22.9964 37.4321C22.9292 37.3614 22.877 37.2779 22.843 37.1865C22.809 37.0951 22.7939 36.9978 22.7987 36.9004C22.7981 36.7148 22.8696 36.5362 22.9981 36.4022C23.1266 36.2682 23.3021 36.1894 23.4876 36.1823H23.5341C23.722 36.1859 23.901 36.2632 24.0324 36.3975C24.1639 36.5319 24.2373 36.7125 24.2368 36.9004Z" fill="#444545"/>
    <path d="M24.2368 36.9004C24.2415 36.9978 24.2265 37.0951 24.1925 37.1865C24.1585 37.2779 24.1063 37.3614 24.0391 37.4321C23.9718 37.5027 23.891 37.5589 23.8013 37.5973C23.7117 37.6357 23.6152 37.6555 23.5177 37.6555C23.4202 37.6555 23.3238 37.6357 23.2341 37.5973C23.1445 37.5589 23.0636 37.5027 22.9964 37.4321C22.9292 37.3614 22.877 37.2779 22.843 37.1865C22.809 37.0951 22.7939 36.9978 22.7987 36.9004C22.7981 36.7148 22.8696 36.5362 22.9981 36.4022C23.1266 36.2682 23.3021 36.1894 23.4876 36.1823H23.5341C23.722 36.1859 23.901 36.2632 24.0324 36.3975C24.1639 36.5319 24.2373 36.7125 24.2368 36.9004Z" fill="#444545"/>
    <path opacity="0.8" d="M40.0553 36.9004C40.0548 37.0422 40.0128 37.1807 39.9344 37.2988C39.8561 37.417 39.7448 37.5096 39.6144 37.5652H39.0546C38.9349 37.5144 38.8311 37.4322 38.7543 37.3273C38.6776 37.2223 38.6306 37.0985 38.6186 36.969C38.6065 36.8396 38.6298 36.7092 38.6858 36.5919C38.7419 36.4746 38.8287 36.3746 38.937 36.3026C39.0453 36.2307 39.1711 36.1894 39.301 36.1832C39.4309 36.177 39.56 36.2061 39.6747 36.2674C39.7894 36.3287 39.8854 36.4199 39.9524 36.5314C40.0194 36.6428 40.0549 36.7703 40.0553 36.9004Z" fill="#E52628"/>
    <path opacity="0.8" d="M44.0389 32.8945V37.5704H40.9269C41.0343 37.3088 41.0757 37.0248 41.0474 36.7434C41.019 36.462 40.9218 36.192 40.7644 35.9571C40.6069 35.7221 40.394 35.5296 40.1445 35.3965C39.895 35.2634 39.6166 35.1937 39.3338 35.1937C39.051 35.1937 38.7726 35.2634 38.5231 35.3965C38.2736 35.5296 38.0607 35.7221 37.9032 35.9571C37.7458 36.192 37.6486 36.462 37.6203 36.7434C37.5919 37.0248 37.6333 37.3088 37.7408 37.5704H36.3389V29.1315H41.4504C42.3161 30.3841 43.179 31.6385 44.0389 32.8945Z" fill="#E52628"/>
    <path d="M42.7575 32.7635H38.061V30.0854H41.0405C41.614 30.9207 42.184 31.9282 42.7627 32.7635H42.7575Z" fill="#E8E8E8"/>
    <path opacity="0.9" d="M39.3335 35.1729C38.9929 35.1729 38.66 35.2739 38.3767 35.4631C38.0935 35.6523 37.8728 35.9213 37.7424 36.236C37.6121 36.5507 37.578 36.897 37.6444 37.2311C37.7109 37.5651 37.8749 37.872 38.1158 38.1129C38.3566 38.3537 38.6635 38.5177 38.9976 38.5842C39.3316 38.6507 39.6779 38.6165 39.9926 38.4862C40.3073 38.3558 40.5763 38.1351 40.7655 37.8519C40.9548 37.5687 41.0558 37.2357 41.0558 36.8951C41.0558 36.4383 40.8743 36.0003 40.5513 35.6773C40.2284 35.3543 39.7903 35.1729 39.3335 35.1729ZM39.3335 37.6201C39.2378 37.6207 39.1429 37.6019 39.0545 37.565C38.8847 37.4954 38.7468 37.3651 38.6677 37.1994C38.5887 37.0337 38.5741 36.8445 38.627 36.6687C38.6798 36.4929 38.7962 36.343 38.9534 36.2483C39.1107 36.1536 39.2976 36.1209 39.4777 36.1565C39.6578 36.192 39.8182 36.2934 39.9277 36.4408C40.0371 36.5882 40.0878 36.771 40.0698 36.9537C40.0518 37.1364 39.9664 37.3059 39.8303 37.4291C39.6942 37.5523 39.5171 37.6204 39.3335 37.6201Z" fill="#444545"/>
    <path opacity="0.9" d="M40.0552 36.9004C40.0557 36.9952 40.0373 37.0892 40.0012 37.1768C39.9651 37.2645 39.9119 37.3441 39.8448 37.4111C39.7777 37.478 39.6979 37.531 39.6102 37.5669C39.5224 37.6028 39.4284 37.621 39.3336 37.6203C39.2379 37.6208 39.143 37.6021 39.0546 37.5652C38.9349 37.5145 38.8311 37.4323 38.7543 37.3273C38.6776 37.2223 38.6306 37.0985 38.6186 36.9691C38.6065 36.8396 38.6298 36.7092 38.6858 36.5919C38.7419 36.4746 38.8287 36.3746 38.937 36.3026C39.0453 36.2307 39.1711 36.1894 39.301 36.1832C39.4309 36.177 39.56 36.2061 39.6747 36.2674C39.7894 36.3287 39.8853 36.4199 39.9523 36.5314C40.0193 36.6428 40.0549 36.7703 40.0552 36.9004Z" fill="#444545"/>
    <path d="M40.0552 36.9004C40.0557 36.9952 40.0373 37.0892 40.0012 37.1768C39.9651 37.2645 39.9119 37.3441 39.8448 37.4111C39.7777 37.478 39.6979 37.531 39.6102 37.5669C39.5224 37.6028 39.4284 37.621 39.3336 37.6203C39.2379 37.6208 39.143 37.6021 39.0546 37.5652C38.9349 37.5145 38.8311 37.4323 38.7543 37.3273C38.6776 37.2223 38.6306 37.0985 38.6186 36.9691C38.6065 36.8396 38.6298 36.7092 38.6858 36.5919C38.7419 36.4746 38.8287 36.3746 38.937 36.3026C39.0453 36.2307 39.1711 36.1894 39.301 36.1832C39.4309 36.177 39.56 36.2061 39.6747 36.2674C39.7894 36.3287 39.8853 36.4199 39.9523 36.5314C40.0193 36.6428 40.0549 36.7703 40.0552 36.9004Z" fill="#444545"/>
    <path opacity="0.9" d="M37.1035 29.1349H36.3457V37.5652H37.1035V29.1349Z" fill="#E52628"/>
</svg>
