<svg width="62" height="62" viewBox="0 0 62 62" fill="none" xmlns="http://www.w3.org/2000/svg">
    <path opacity="0.4" d="M30.2856 51C40.5029 51 48.7856 42.7173 48.7856 32.5C48.7856 22.2827 40.5029 14 30.2856 14C20.0684 14 11.7856 22.2827 11.7856 32.5C11.7856 42.7173 20.0684 51 30.2856 51Z" fill="#E52628"/>
    <path d="M39.6751 25.3098V42.7322H20.896V22.2697H36.635L39.6751 25.3098Z" fill="#E8E8E8"/>
    <path d="M39.6752 25.3098H36.635V22.2697L39.6752 25.3098Z" fill="#444545"/>
    <path d="M30.1334 32.1446H22.0872V33.0768H30.1334V32.1446Z" fill="#454646"/>
    <path d="M30.1334 29.9113H22.0872V30.8434H30.1334V29.9113Z" fill="#454646"/>
    <path d="M30.1334 36.6094H22.0872V37.5416H30.1334V36.6094Z" fill="#454646"/>
    <path d="M30.1334 34.3779H22.0872V35.3101H30.1334V34.3779Z" fill="#454646"/>
    <path d="M34.8164 35.9867C34.4826 35.9919 34.1517 35.9238 33.847 35.7871C33.571 35.6603 33.3308 35.4667 33.1483 35.2237C32.9617 34.9705 32.8418 34.6744 32.7998 34.3626L33.6457 34.2273C33.7019 34.5027 33.8542 34.7492 34.0754 34.9226C34.3006 35.0971 34.5791 35.1885 34.8638 35.1814C35.1224 35.1919 35.3774 35.1189 35.5913 34.9733C35.679 34.9157 35.7509 34.837 35.8005 34.7446C35.8501 34.6521 35.8759 34.5487 35.8755 34.4438C35.8804 34.3094 35.8317 34.1786 35.7402 34.0801C35.6172 33.9669 35.4677 33.8866 35.3054 33.8466L34.0704 33.4609C33.3519 33.2353 32.9921 32.7988 32.991 32.1514C32.9845 31.8702 33.0604 31.5932 33.2092 31.3546C33.3604 31.1238 33.5756 30.9421 33.8284 30.8318C34.4163 30.5892 35.0762 30.5892 35.664 30.8318C35.9206 30.9448 36.1454 31.1191 36.3188 31.3393C36.5007 31.577 36.6278 31.852 36.691 32.1446L35.8112 32.3037C35.7814 32.1424 35.7148 31.9901 35.6167 31.8587C35.52 31.731 35.3941 31.6283 35.2496 31.5593C35.0954 31.4869 34.9275 31.4482 34.7572 31.4459C34.5979 31.4414 34.4392 31.4684 34.2903 31.5254C34.163 31.5743 34.0505 31.6553 33.9638 31.7606C33.8851 31.8558 33.842 31.9754 33.842 32.099C33.8416 32.1678 33.8566 32.2359 33.8859 32.2982C33.9152 32.3606 33.9579 32.4156 34.0111 32.4593C34.1698 32.5815 34.3526 32.6686 34.5474 32.7148L35.4695 32.9821C35.8316 33.0638 36.1638 33.2449 36.4287 33.5049C36.6336 33.7489 36.7388 34.0613 36.7231 34.3795C36.7295 34.6758 36.6464 34.9671 36.4846 35.2153C36.3167 35.4628 36.082 35.6575 35.8078 35.777C35.4966 35.9184 35.1583 35.99 34.8164 35.9867ZM34.363 30.8893V30.0434H35.2208V30.8893H34.363ZM34.363 36.589V35.7431H35.2208V36.589H34.363Z" fill="#444545"/>
</svg>
