<svg width="248" height="248" viewBox="0 0 248 248" fill="none" xmlns="http://www.w3.org/2000/svg">
    <path opacity="0.4" d="M123.917 106.309C139.968 106.309 152.981 93.2963 152.981 77.2445C152.981 61.1927 139.968 48.1801 123.917 48.1801C107.865 48.1801 94.8523 61.1927 94.8523 77.2445C94.8523 93.2963 107.865 106.309 123.917 106.309Z" fill="#E52628"/>
    <path d="M105.285 78.0238L121.556 90.1186L142.548 64.3849" stroke="#E52628" stroke-width="4" stroke-linecap="round" stroke-linejoin="round"/>
    <path opacity="0.7" d="M103.05 142.307H184.531L194.008 120.536H112.528L103.05 142.307Z" fill="#444545"/>
    <path opacity="0.6" d="M184.854 142.314H58.825V209.383H184.854V142.314Z" fill="#E52628"/>
    <path opacity="0.6" d="M184.846 142.307H140.305V209.376H184.846V142.307Z" fill="#E52628"/>
    <path opacity="0.8" d="M130.828 152.637H112.844V180.804H130.828V152.637Z" fill="#E8E8E8"/>
    <path d="M120.181 155.754H114.851V161.085H120.181V155.754Z" fill="#444545"/>
    <path d="M128.159 162.482H114.851V163.717H128.159V162.482Z" fill="#444545"/>
    <path d="M123.916 165.482H114.851V166.717H123.916V165.482Z" fill="#444545"/>
    <path d="M140.305 142.307H58.825L49.3477 120.536H130.828L140.305 142.307Z" fill="#E52628"/>
    <path d="M197.228 163.724H152.687L140.305 142.307H184.847L197.228 163.724Z" fill="#E52628"/>
    <path d="M58.8249 142.314V163.724H46.1272L58.5088 142.314H58.8249Z" fill="#E52628"/>
    <path d="M218.095 87.8026C217.756 88.5379 212.948 98.0961 202.845 99.1916C195.662 99.9269 187.199 96.2506 184.994 89.6334C184.075 86.8836 183.685 81.9721 186.891 79.1488C189.832 76.5901 194.603 76.7151 197.419 78.715C202.831 82.5603 200.625 93.1038 198.89 97.9344C197.963 100.486 195.706 106.684 189.839 109.897C182.141 114.11 170.995 111.684 162.635 103.508" stroke="#444545" stroke-width="4" stroke-miterlimit="10"/>
    <path d="M75.8532 109.323C67.2288 109.764 60.0748 106.007 58.0529 100.317C56.5089 95.9712 57.4426 89.104 61.3541 87.6115C62.615 87.1929 63.9739 87.1708 65.2477 87.5481C66.5215 87.9253 67.6492 88.6839 68.4787 89.7216C70.2286 92.0818 69.6625 95.486 68.6919 97.1697C64.4863 104.471 41.7745 98.1476 39.7231 97.5667" stroke="#444545" stroke-width="4" stroke-miterlimit="10"/>
    <path d="M208.639 111.948C210.71 111.948 212.389 110.269 212.389 108.198C212.389 106.127 210.71 104.449 208.639 104.449C206.568 104.449 204.889 106.127 204.889 108.198C204.889 110.269 206.568 111.948 208.639 111.948Z" fill="#E52628"/>
    <path d="M67.3906 69.8479C69.4616 69.8479 71.1404 68.169 71.1404 66.0981C71.1404 64.0272 69.4616 62.3483 67.3906 62.3483C65.3197 62.3483 63.6409 64.0272 63.6409 66.0981C63.6409 68.169 65.3197 69.8479 67.3906 69.8479Z" fill="#E52628"/>
    <path d="M43.4729 59.4C45.5439 59.4 47.2227 57.7212 47.2227 55.6502C47.2227 53.5793 45.5439 51.9005 43.4729 51.9005C41.402 51.9005 39.7231 53.5793 39.7231 55.6502C39.7231 57.7212 41.402 59.4 43.4729 59.4Z" fill="#E52628"/>
    <path d="M197.228 46.0773C199.299 46.0773 200.978 44.3985 200.978 42.3275C200.978 40.2566 199.299 38.5778 197.228 38.5778C195.157 38.5778 193.479 40.2566 193.479 42.3275C193.479 44.3985 195.157 46.0773 197.228 46.0773Z" fill="#E52628"/>
    <path d="M34.1721 133.601C36.2431 133.601 37.9219 131.922 37.9219 129.851C37.9219 127.781 36.2431 126.102 34.1721 126.102C32.1012 126.102 30.4224 127.781 30.4224 129.851C30.4224 131.922 32.1012 133.601 34.1721 133.601Z" fill="#E52628"/>
</svg>
