<svg width="62" height="62" viewBox="0 0 62 62" fill="none" xmlns="http://www.w3.org/2000/svg">
    <path opacity="0.4" d="M30.9516 50.5455C41.3525 50.5455 49.7841 42.1139 49.7841 31.713C49.7841 21.3121 41.3525 12.8805 30.9516 12.8805C20.5507 12.8805 12.1191 21.3121 12.1191 31.713C12.1191 42.1139 20.5507 50.5455 30.9516 50.5455Z" fill="#E52628"/>
    <path d="M31.3546 40.1364C31.4852 40.3013 31.5592 40.5039 31.5657 40.7142C31.5722 40.9245 31.5109 41.1313 31.3908 41.304L30.2145 41.6485L29.9665 40.8029L29.7839 40.176C29.8781 40.0413 30.005 39.9328 30.1526 39.8605C30.3002 39.7882 30.4637 39.7545 30.6278 39.7626C30.6392 39.7609 30.6508 39.7609 30.6623 39.7626H30.695C30.8244 39.7774 30.9495 39.8182 31.0628 39.8824C31.1762 39.9466 31.2754 40.033 31.3546 40.1364Z" fill="#E52628"/>
    <path d="M41.8689 38.2418L32.9357 40.8527C32.951 40.5411 32.9042 40.2297 32.798 39.9364C32.6482 39.5309 32.3911 39.1737 32.054 38.9031L41.2747 36.2078L41.8689 38.2418Z" fill="#E52628"/>
    <path d="M31.4251 40.3758L29.9664 40.8029L29.6771 40.8873L29.6064 40.6444C29.621 40.4757 29.6805 40.314 29.7787 40.176C29.8729 40.0413 29.9997 39.9328 30.1473 39.8605C30.2949 39.7882 30.4584 39.7545 30.6225 39.7626C30.634 39.7609 30.6456 39.7609 30.657 39.7626H30.6897C30.8187 39.7768 30.9436 39.8167 31.0569 39.88C31.1702 39.9433 31.2696 40.0287 31.3493 40.1312L31.4251 40.3758Z" fill="#E52628"/>
    <path opacity="0.9" d="M32.798 39.9368C32.6483 39.5312 32.3911 39.1741 32.054 38.9035C31.7072 38.6266 31.2893 38.4535 30.8484 38.404H30.7709C30.1484 38.3554 29.5321 38.5554 29.0566 38.9601C28.5812 39.3649 28.2855 39.9414 28.2341 40.5637C28.2091 40.874 28.2466 41.1861 28.3443 41.4816C28.4881 41.9241 28.7599 42.314 29.1252 42.6022C29.4905 42.8903 29.9329 43.0638 30.3968 43.1006C30.8606 43.1375 31.3249 43.0361 31.7311 42.8092C32.1373 42.5824 32.4672 42.2403 32.6791 41.8261C32.8223 41.5492 32.9084 41.2464 32.9323 40.9357C32.9323 40.9098 32.9323 40.884 32.9323 40.8582C32.9494 40.5452 32.9037 40.2319 32.798 39.9368ZM30.8932 41.678C30.7683 41.7187 30.6367 41.7345 30.5057 41.7245C30.3738 41.715 30.2453 41.678 30.1285 41.616C29.9574 41.5264 29.8164 41.3886 29.723 41.2196C29.6296 41.0505 29.588 40.8578 29.6032 40.6653C29.6024 40.6584 29.6024 40.6515 29.6032 40.6446C29.6178 40.4759 29.6773 40.3142 29.7755 40.1762C29.8697 40.0415 29.9965 39.933 30.1441 39.8607C30.2917 39.7884 30.4552 39.7547 30.6194 39.7628C30.6308 39.7611 30.6424 39.7611 30.6538 39.7628H30.6865C30.9381 39.794 31.168 39.9209 31.3284 40.1172C31.4887 40.3135 31.5673 40.5641 31.5476 40.8168C31.533 41.0103 31.4616 41.1952 31.3425 41.3484C31.2233 41.5016 31.0616 41.6162 30.8777 41.678H30.8932Z" fill="#444545"/>
    <path d="M31.5631 40.8166C31.5484 41.0102 31.4771 41.195 31.3579 41.3482C31.2388 41.5014 31.0771 41.616 30.8931 41.6778C30.7683 41.7185 30.6366 41.7344 30.5056 41.7243C30.3737 41.7148 30.2452 41.6778 30.1285 41.6158C29.9574 41.5262 29.8164 41.3884 29.723 41.2194C29.6296 41.0503 29.5879 40.8576 29.6032 40.6651C29.6023 40.6582 29.6023 40.6513 29.6032 40.6444C29.6178 40.4757 29.6772 40.314 29.7754 40.176C29.8696 40.0413 29.9964 39.9328 30.144 39.8605C30.2916 39.7882 30.4551 39.7545 30.6193 39.7626C30.6307 39.7609 30.6423 39.7609 30.6537 39.7626H30.6864C30.938 39.7938 31.1679 39.9207 31.3283 40.117C31.4887 40.3133 31.5672 40.5639 31.5476 40.8166H31.5631Z" fill="#444545"/>
    <path d="M29.1056 38.9223L23.8184 20.8389L25.5664 20.3223L30.8536 38.4056H30.7761C30.1736 38.357 29.5755 38.542 29.1056 38.9223Z" fill="#E52628"/>
    <path opacity="0.7" d="M25.5625 20.3218L20.0332 21.9387L20.7027 24.2281L26.2319 22.6113L25.5625 20.3218Z" fill="#E52628"/>
    <path opacity="0.84" d="M38.2067 29.585L29.6321 31.9904L31.4672 38.5321L40.0418 36.1267L38.2067 29.585Z" fill="#E52628"/>
    <path opacity="0.9" d="M38.2078 29.5871L35.8184 30.2574L37.6534 36.7991L40.0429 36.1288L38.2078 29.5871Z" fill="#E52628"/>
    <path opacity="0.8" d="M35.201 31.1805L33.7053 31.6L34.3626 33.9431L35.8583 33.5235L35.201 31.1805Z" fill="#E8E8E8"/>
    <path d="M34.3861 31.6886L33.9434 31.8128L34.0676 32.2555L34.5103 32.1313L34.3861 31.6886Z" fill="#444545"/>
    <path d="M35.2066 32.062L34.1006 32.3723L34.1294 32.4751L35.2354 32.1648L35.2066 32.062Z" fill="#444545"/>
    <path d="M34.824 32.3219L34.0718 32.5334L34.1006 32.636L34.8529 32.4244L34.824 32.3219Z" fill="#444545"/>
    <path opacity="0.84" d="M36.2455 22.6801L27.6709 25.0855L29.506 31.6272L38.0806 29.2218L36.2455 22.6801Z" fill="#E52628"/>
    <path opacity="0.9" d="M36.2467 22.6807L33.8572 23.351L35.6923 29.8927L38.0817 29.2224L36.2467 22.6807Z" fill="#E52628"/>
    <path opacity="0.8" d="M33.2364 24.2743L31.7407 24.6939L32.398 27.037L33.8937 26.6174L33.2364 24.2743Z" fill="#E8E8E8"/>
    <path d="M32.4249 24.7822L31.9822 24.9064L32.1064 25.3491L32.5491 25.2249L32.4249 24.7822Z" fill="#444545"/>
    <path d="M33.2454 25.1567L32.1394 25.467L32.1682 25.5698L33.2743 25.2595L33.2454 25.1567Z" fill="#444545"/>
    <path d="M32.9649 25.5044L32.2104 25.716L32.2393 25.8188L32.9938 25.6072L32.9649 25.5044Z" fill="#444545"/>
</svg>
