<svg width="310" height="93" viewBox="0 0 310 93" fill="none" xmlns="http://www.w3.org/2000/svg">
    <path d="M25.1801 71.6101C20.4928 71.7282 15.8666 70.5258 11.8301 68.1401C8.07419 65.8422 5.04974 62.5229 3.1101 58.5701C0.998402 54.1822 -0.0499139 49.3586 0.0501035 44.4901C-0.0557585 39.5939 1.01778 34.7442 3.1801 30.3501C5.15551 26.4178 8.20278 23.1244 11.9701 20.8501C15.978 18.5269 20.5488 17.3539 25.1801 17.4601C29.8675 17.3419 34.4936 18.5444 38.5301 20.9301C42.2805 23.2244 45.3067 26.5313 47.2601 30.4701C49.3025 34.8813 50.3604 39.684 50.3604 44.5451C50.3604 49.4061 49.3025 54.2089 47.2601 58.6201C45.3015 62.5674 42.2641 65.8787 38.5001 68.1701C34.4669 70.5344 29.8538 71.7258 25.1801 71.6101ZM25.1801 62.2501C30.0934 62.2501 33.7601 60.5834 36.1801 57.2501C38.6001 53.9167 39.8134 49.6501 39.8201 44.4501C39.8201 39.1167 38.5934 34.8334 36.1401 31.6001C33.6868 28.3668 30.0201 26.7601 25.1401 26.7801C22.2556 26.6862 19.4125 27.486 17.0001 29.0701C14.8176 30.6204 13.1465 32.7858 12.2001 35.2901C11.1039 38.231 10.5713 41.3521 10.6301 44.4901C10.6301 49.8701 11.8668 54.1768 14.3401 57.4101C16.8134 60.6434 20.4268 62.2567 25.1801 62.2501Z" fill="#444545"/>
    <path d="M60.75 93V18.9H69.59V55.81H70.73V93H60.75ZM84.88 71.63C80.4846 71.7688 76.1601 70.4967 72.54 68C69.1665 65.5423 66.5533 62.1841 65 58.31C61.5999 49.4069 61.5999 39.5631 65 30.66C66.5261 26.7898 69.1287 23.4376 72.5 21C76.1016 18.5524 80.3879 17.3127 84.74 17.46C89.1429 17.3553 93.4739 18.5897 97.16 21C100.698 23.4036 103.502 26.7403 105.26 30.64C107.22 34.99 108.193 39.7197 108.11 44.49C108.186 49.2533 107.223 53.976 105.29 58.33C103.564 62.2418 100.797 65.6043 97.29 68.05C93.6185 70.4859 89.2845 71.7292 84.88 71.61V71.63ZM83.51 62.63C86.3284 62.7362 89.0994 61.883 91.37 60.21C93.4997 58.5106 95.1106 56.2484 96.02 53.68C97.0872 50.7354 97.6124 47.6218 97.57 44.49C97.6119 41.3811 97.0866 38.2905 96.02 35.37C95.1027 32.7927 93.4644 30.5331 91.3 28.86C88.9368 27.167 86.0744 26.315 83.17 26.44C80.4313 26.3293 77.7335 27.1312 75.5 28.72C73.397 30.3416 71.8293 32.5572 71 35.08C69.983 38.1109 69.4926 41.2936 69.55 44.49C69.4935 47.6807 69.9735 50.8583 70.97 53.89C71.7952 56.4339 73.371 58.6685 75.49 60.3C77.829 61.9487 80.6517 62.7687 83.51 62.63Z" fill="#444545"/>
    <path d="M141.31 71.6099C136.618 71.7111 131.984 70.5544 127.89 68.2599C124.059 66.061 120.937 62.8136 118.89 58.8999C116.694 54.6017 115.602 49.8252 115.71 44.9999C115.585 39.9573 116.668 34.958 118.87 30.4199C120.832 26.4586 123.889 23.1439 127.68 20.8699C131.675 18.5616 136.227 17.3958 140.84 17.4999C145.552 17.3589 150.199 18.6225 154.19 21.1299C157.934 23.6432 160.812 27.2506 162.43 31.4599C164.338 36.5367 165.076 41.9783 164.59 47.3799H154.66V43.7699C154.6 37.8099 153.467 33.4066 151.26 30.5599C149.053 27.7132 145.72 26.2899 141.26 26.2899C136.287 26.2899 132.55 27.8566 130.05 30.9899C127.55 34.1232 126.3 38.6499 126.3 44.5699C126.3 50.2099 127.55 54.5732 130.05 57.6599C132.55 60.7466 136.16 62.2899 140.88 62.2899C143.692 62.3537 146.465 61.6223 148.88 60.1799C151.193 58.7117 153.033 56.6076 154.18 54.1199L163.91 57.2099C162.071 61.6217 158.9 65.3487 154.84 67.8699C150.777 70.378 146.084 71.6754 141.31 71.6099ZM123 47.3399V39.5899H159.62V47.3399H123Z" fill="#444545"/>
    <path d="M175.23 70.1801V18.8801H184.06V31.3301L182.83 29.7101C183.442 28.0943 184.273 26.5701 185.3 25.1801C186.262 23.8498 187.45 22.6989 188.81 21.7801C190.133 20.8167 191.602 20.0706 193.16 19.5701C194.754 19.0496 196.407 18.7304 198.08 18.6201C199.698 18.5087 201.323 18.5961 202.92 18.8801V28.1901C201.097 27.7381 199.208 27.6094 197.34 27.8101C195.434 27.9959 193.594 28.6094 191.958 29.605C190.322 30.6006 188.931 31.9525 187.89 33.5601C186.939 35.0987 186.263 36.7904 185.89 38.5601C185.471 40.458 185.263 42.3965 185.27 44.3401V70.2201L175.23 70.1801Z" fill="#444545"/>
    <path d="M225 71.6101C221.69 71.7185 218.406 70.993 215.45 69.5001C213.02 68.216 211.003 66.2712 209.63 63.8901C208.304 61.5522 207.615 58.9076 207.63 56.2201C207.579 53.8661 208.051 51.5302 209.01 49.3801C209.942 47.4057 211.343 45.6892 213.09 44.3801C215.1 42.8937 217.349 41.7608 219.74 41.0301C222.289 40.3015 224.876 39.714 227.49 39.2701C230.37 38.7634 233.4 38.2901 236.58 37.8501L246.06 36.5201L242.45 38.5201C242.51 34.5201 241.66 31.5201 239.91 29.5701C238.16 27.6201 235.13 26.6501 230.91 26.6501C228.32 26.6232 225.767 27.2674 223.5 28.5201C222.345 29.191 221.335 30.0846 220.529 31.1489C219.722 32.2132 219.134 33.427 218.8 34.7201L209.53 31.8701C210.676 27.6445 213.235 23.9389 216.78 21.3701C220.34 18.7767 225.08 17.4801 231 17.4801C235.123 17.3844 239.218 18.1862 243 19.8301C246.31 21.32 248.968 23.9599 250.48 27.2601C251.298 28.9294 251.812 30.7307 252 32.5801C252.194 34.5741 252.287 36.5767 252.28 38.5801V70.1601H243.5V58.4501L245.2 60.0001C243.36 63.6141 240.557 66.6492 237.1 68.7701C233.392 70.7777 229.214 71.7581 225 71.6101ZM226.75 63.4901C229.249 63.5574 231.73 63.0475 234 62.0001C235.895 61.1086 237.566 59.8032 238.89 58.1801C240.058 56.7689 240.889 55.1103 241.32 53.3301C241.881 51.6757 242.192 49.9464 242.24 48.2001C242.32 46.3001 242.36 44.7801 242.36 43.6401L245.59 44.8301L237.04 46.1101C234.48 46.4901 232.147 46.8634 230.04 47.2301C228.171 47.5462 226.324 47.9804 224.51 48.5301C223.242 48.9667 222.025 49.5401 220.88 50.2401C219.871 50.8541 219.01 51.684 218.36 52.6701C217.716 53.7065 217.392 54.9103 217.43 56.1301C217.405 57.4658 217.771 58.7798 218.481 59.9111C219.191 61.0425 220.216 61.9422 221.43 62.5001C223.108 63.2323 224.931 63.571 226.76 63.4901H226.75Z" fill="#444545"/>
    <path d="M286.52 71.6101C282.41 71.6914 278.342 70.768 274.67 68.9201C271.332 67.2292 268.533 64.6382 266.59 61.4401C264.597 58.0824 263.586 54.2335 263.67 50.3301C263.63 46.557 264.582 42.8396 266.43 39.5501C268.334 36.2193 271.194 33.5369 274.64 31.8501L274.45 35.2701C271.68 33.6099 269.369 31.2824 267.73 28.5001C266.147 25.735 265.336 22.5958 265.38 19.4101C265.287 15.8458 266.228 12.3309 268.09 9.29006C269.908 6.42644 272.502 4.13776 275.57 2.69007C279.011 1.15369 282.737 0.359619 286.505 0.359619C290.273 0.359619 293.999 1.15369 297.44 2.69007C300.5 4.14136 303.086 6.42966 304.9 9.29006C306.59 12.1894 307.52 15.4686 307.604 18.8234C307.688 22.1783 306.923 25.4999 305.38 28.4801C303.749 31.3151 301.387 33.6602 298.54 35.2701L298.39 31.9501C301.841 33.5712 304.711 36.2139 306.61 39.5201C308.482 42.8126 309.448 46.5426 309.41 50.3301C309.492 54.236 308.473 58.0861 306.47 61.4401C304.509 64.638 301.698 67.2278 298.35 68.9201C294.682 70.7606 290.623 71.6837 286.52 71.6101ZM286.52 62.1601C289.767 62.3117 292.953 61.2414 295.45 59.1601C297.73 57.1601 298.87 54.2234 298.87 50.3501C298.87 46.4767 297.737 43.5234 295.47 41.4901C292.906 39.5059 289.757 38.4292 286.515 38.4292C283.273 38.4292 280.123 39.5059 277.56 41.4901C275.3 43.5301 274.17 46.4834 274.17 50.3501C274.17 54.2167 275.31 57.1534 277.59 59.1601C280.087 61.2414 283.273 62.3117 286.52 62.1601ZM286.52 28.9101C289.257 29.0335 291.952 28.199 294.14 26.5501C296.09 24.9901 297.06 22.5501 297.06 19.4101C297.06 16.2701 296.06 13.8101 294.14 12.2101C291.901 10.6472 289.236 9.8091 286.505 9.8091C283.774 9.8091 281.109 10.6472 278.87 12.2101C276.91 13.8101 275.93 16.2101 275.93 19.4101C275.93 22.6001 276.93 24.9901 278.87 26.5501C281.069 28.1996 283.773 29.0338 286.52 28.9101Z" fill="#E52628"/>
</svg>
