<svg width="225" height="84" viewBox="0 0 225 84" fill="none" xmlns="http://www.w3.org/2000/svg">
    <path d="M13.3849 59.7967C13.3849 67.7075 18.2578 72.8384 26.8158 72.8384C35.3663 72.8384 40.2008 67.7075 40.2008 59.7967V21.9136H53.5857V61.0387C53.5857 74.6793 43.1735 83.9135 26.8158 83.9135C10.4582 83.9135 0 74.6793 0 61.0387V21.9136H13.3849V59.7967Z" fill="#D61515"/>
    <path d="M107.77 44.4704C107.77 36.5596 102.897 31.4286 94.3389 31.4286C85.7884 31.4286 80.9539 36.5596 80.9539 44.4704V82.3535H67.5767V43.2283C67.5767 29.5877 77.9889 20.3535 94.3465 20.3535C110.697 20.3535 121.155 29.5877 121.155 43.2283V82.3535H107.77V44.4704Z" fill="#009D48"/>
    <path d="M134.21 82.3538V21.936H147.595V82.3538H134.21Z" fill="#009BD9"/>
    <path d="M133.244 7.31933C133.244 3.23086 136.737 0 140.921 0C145.112 0 148.552 3.23086 148.552 7.31933C148.552 11.3634 145.104 14.5943 140.921 14.5943C136.737 14.5943 133.244 11.3561 133.244 7.31933Z" fill="#009BD9"/>
    <path d="M212.833 31.0372C212.833 27.7546 215.522 25.167 218.916 25.167C222.318 25.167 225 27.7546 225 31.0372C225 34.3199 222.318 36.9149 218.916 36.9149C215.522 36.9223 212.833 34.3199 212.833 31.0372ZM224.004 31.0372C224.004 28.2869 221.774 26.1281 218.916 26.1281C216.074 26.1281 213.829 28.2943 213.829 31.0372C213.829 33.7801 216.074 35.9612 218.916 35.9612C221.774 35.9612 224.004 33.7875 224.004 31.0372ZM216.633 33.8467V27.9764H219.376C220.571 27.9764 221.452 28.6936 221.452 29.7804C221.452 30.7267 220.87 31.3404 220.012 31.5104L221.728 33.8467H220.571L218.939 31.6361H217.583V33.8467H216.633ZM217.583 30.8376H219.116C220.004 30.8376 220.418 30.4754 220.418 29.8026C220.418 29.1889 219.981 28.8119 219.146 28.8119H217.583V30.8376Z" fill="#808080"/>
    <path d="M191.143 47.1391L183.435 45.5865C175.942 44.0339 172.885 41.8086 172.885 37.9862C172.885 33.2398 177.314 30.179 184.01 30.179C190.461 30.179 195.142 33.3876 195.786 38.3116C195.832 38.659 195.878 39.2209 195.878 39.7311H208.389C208.389 39.7311 208.389 39.0435 208.382 38.4816V38.3559C207.983 27.6505 198.016 20.2202 183.918 20.2202C169.162 20.2202 159.454 27.6948 159.454 38.9843C159.454 48.1742 165.17 53.8448 176.823 56.1959L185.152 57.9185C192.997 59.5524 196.184 61.8665 196.184 65.8515C196.184 70.5536 191.266 73.8658 184.309 73.8658C176.777 73.8658 171.544 70.6349 170.924 65.5927C170.84 64.9791 170.847 64.2767 170.847 64.2767H157.953L157.976 65.2526L158.014 65.9698C158.711 76.9562 168.533 83.8911 183.596 83.8911C199.64 83.8911 209.523 76.4165 209.523 64.3285C209.531 54.9908 203.992 49.7415 191.143 47.1391Z" fill="#FFCB05"/>
</svg>
