<svg width="20" height="22" viewBox="0 0 20 22" fill="none" xmlns="http://www.w3.org/2000/svg">
    <path d="M17.7778 16.5V9.9C17.7778 8.69 16.7778 7.7 15.5556 7.7H3.33333V5.5L0 8.8L3.33333 12.1V9.9H7.77778V13.2H0V16.5C0 17.71 1 18.7 2.22222 18.7H4.44444C4.44444 20.526 5.93333 22 7.77778 22C9.62222 22 11.1111 20.526 11.1111 18.7H20V16.5H17.7778ZM7.77778 19.8C7.16667 19.8 6.66667 19.305 6.66667 18.7C6.66667 18.095 7.16667 17.6 7.77778 17.6C8.38889 17.6 8.88889 18.095 8.88889 18.7C8.88889 19.305 8.38889 19.8 7.77778 19.8ZM15.5556 13.2H11.1111V9.9H15.5556V13.2ZM14.4444 0V2.2H5.55556V4.4H14.4444V6.6L17.7778 3.3L14.4444 0Z" fill="#ECECEC"/>
</svg>
