<svg width="20" height="17" viewBox="0 0 20 17" fill="none" xmlns="http://www.w3.org/2000/svg">
    <path d="M10.0007 3.83333C12.3007 3.83333 14.1673 5.7 14.1673 8C14.1673 8.54167 14.059 9.05 13.8673 9.525L16.3007 11.9583C17.559 10.9083 18.5506 9.55 19.159 8C17.7173 4.34167 14.159 1.75 9.99232 1.75C8.82565 1.75 7.70898 1.95833 6.67565 2.33333L8.47565 4.13333C8.95065 3.94167 9.45898 3.83333 10.0007 3.83333ZM1.66732 1.55833L3.56732 3.45833L3.95065 3.84167C2.56732 4.91667 1.48398 6.35 0.833984 8C2.27565 11.6583 5.83398 14.25 10.0007 14.25C11.2923 14.25 12.5257 14 13.6507 13.55L14.0007 13.9L16.4423 16.3333L17.5007 15.275L2.72565 0.5L1.66732 1.55833ZM6.27565 6.16667L7.56732 7.45833C7.52565 7.63333 7.50065 7.81667 7.50065 8C7.50065 9.38333 8.61732 10.5 10.0007 10.5C10.184 10.5 10.3673 10.475 10.5423 10.4333L11.834 11.725C11.2757 12 10.659 12.1667 10.0007 12.1667C7.70065 12.1667 5.83398 10.3 5.83398 8C5.83398 7.34167 6.00065 6.725 6.27565 6.16667ZM9.86732 5.51667L12.4923 8.14167L12.509 8.00833C12.509 6.625 11.3923 5.50833 10.009 5.50833L9.86732 5.51667Z" fill="#777879"/>
</svg>
