<svg width="62" height="62" viewBox="0 0 62 62" fill="none" xmlns="http://www.w3.org/2000/svg">
    <path opacity="0.5" d="M31.6184 55.9859C43.298 55.9859 52.7661 46.5177 52.7661 34.8382C52.7661 23.1586 43.298 13.6904 31.6184 13.6904C19.9389 13.6904 10.4707 23.1586 10.4707 34.8382C10.4707 46.5177 19.9389 55.9859 31.6184 55.9859Z" fill="#989A9C"/>
    <path opacity="0.7" d="M36.2065 10.0004C36.2025 10.7701 36.1004 11.5361 35.9029 12.2799C35.5077 13.6984 33.5236 16.6933 30.0794 19.9212C26.9721 16.7141 24.9796 13.9022 24.4264 12.3714C24.1942 11.7269 24.061 11.0509 24.0312 10.3665C24.0326 9.6058 24.1824 8.8527 24.4722 8.14937C24.7633 7.37446 25.2135 6.66911 25.7938 6.07878C26.3741 5.48844 27.0717 5.02619 27.8415 4.72181C28.582 4.40859 29.3754 4.23919 30.1792 4.22266C33.0036 4.22266 34.7923 6.30249 34.9212 6.47719C35.3846 7.0507 35.7437 7.70118 35.9819 8.39896C36.1077 8.92439 36.183 9.46066 36.2065 10.0004Z" fill="#989A9C"/>
    <path opacity="0.7" d="M30.1876 12.7258C31.4902 12.7258 32.5462 11.6699 32.5462 10.3673C32.5462 9.06473 31.4902 8.00879 30.1876 8.00879C28.885 8.00879 27.8291 9.06473 27.8291 10.3673C27.8291 11.6699 28.885 12.7258 30.1876 12.7258Z" fill="white"/>
    <path opacity="0.9" d="M23.0906 40.1705C23.0913 40.3275 23.0455 40.4813 22.9589 40.6124C22.8722 40.7434 22.7487 40.8458 22.6039 40.9067H21.9841C21.8183 40.8349 21.6818 40.7089 21.5968 40.5495C21.5118 40.39 21.4834 40.2064 21.5162 40.0287C21.5491 39.8511 21.6412 39.6898 21.7775 39.5712C21.9139 39.4526 22.0864 39.3838 22.267 39.376H22.3211C22.5274 39.3825 22.7231 39.469 22.8668 39.6173C23.0104 39.7656 23.0907 39.964 23.0906 40.1705Z" fill="#989A9C"/>
    <path opacity="0.8" d="M18.2451 27.584V40.8949H20.5329C20.4353 40.6618 20.3858 40.4114 20.3873 40.1586C20.3875 39.8847 20.4457 39.614 20.5579 39.3641C20.71 39.0313 20.9545 38.7491 21.2624 38.5512C21.5703 38.3534 21.9286 38.2482 22.2945 38.2482C22.6605 38.2482 23.0188 38.3534 23.3267 38.5512C23.6346 38.7491 23.8791 39.0313 24.0312 39.3641C24.142 39.6034 24.2015 39.8632 24.2058 40.1269C24.2101 40.3905 24.1591 40.6521 24.0562 40.8949H36.4852V27.584H18.2451ZM35.1874 39.3849H24.7175C24.5498 38.8724 24.2244 38.4259 23.7877 38.1094C23.3511 37.7928 22.8255 37.6224 22.2862 37.6224C21.7469 37.6224 21.2214 37.7928 20.7847 38.1094C20.3481 38.4259 20.0226 38.8724 19.8549 39.3849H19.5346V29.1147H35.1791L35.1874 39.3849Z" fill="#989A9C"/>
    <path opacity="0.9" d="M35.187 29.1143V39.3845H24.7171C24.5494 38.8719 24.2239 38.4254 23.7873 38.1089C23.3506 37.7923 22.8251 37.6219 22.2858 37.6219C21.7465 37.6219 21.2209 37.7923 20.7843 38.1089C20.3476 38.4254 20.0222 38.8719 19.8545 39.3845H19.5342V29.1143H35.187Z" fill="#444545"/>
    <path opacity="0.9" d="M24.0316 39.3845C23.8795 39.0516 23.635 38.7694 23.3271 38.5716C23.0192 38.3737 22.6609 38.2686 22.2949 38.2686C21.929 38.2686 21.5707 38.3737 21.2628 38.5716C20.9549 38.7694 20.7104 39.0516 20.5583 39.3845C20.4461 39.6343 20.3879 39.9051 20.3877 40.179C20.3862 40.4317 20.4357 40.6821 20.5333 40.9153C20.677 41.2643 20.9212 41.5628 21.2349 41.7728C21.5485 41.9828 21.9175 42.095 22.2949 42.095C22.6724 42.095 23.0414 41.9828 23.355 41.7728C23.6687 41.5628 23.9128 41.2643 24.0566 40.9153C24.1595 40.6725 24.2105 40.4109 24.2062 40.1472C24.2019 39.8836 24.1424 39.6238 24.0316 39.3845ZM22.6048 40.9153C22.5067 40.9563 22.4013 40.9775 22.2949 40.9775C22.1885 40.9775 22.0832 40.9563 21.985 40.9153C21.8192 40.8434 21.6827 40.7175 21.5977 40.558C21.5127 40.3986 21.4843 40.215 21.5171 40.0373C21.55 39.8596 21.6421 39.6983 21.7785 39.5797C21.9148 39.4612 22.0874 39.3923 22.2679 39.3845H22.322C22.5025 39.3923 22.6751 39.4612 22.8114 39.5797C22.9478 39.6983 23.0399 39.8596 23.0727 40.0373C23.1056 40.215 23.0772 40.3986 22.9922 40.558C22.9072 40.7175 22.7706 40.8434 22.6048 40.9153Z" fill="#444545"/>
    <path opacity="0.9" d="M23.0906 40.1705C23.0913 40.3275 23.0455 40.4813 22.9589 40.6124C22.8722 40.7434 22.7487 40.8458 22.6039 40.9067C22.5057 40.9478 22.4004 40.9689 22.294 40.9689C22.1876 40.9689 22.0823 40.9478 21.9841 40.9067C21.8183 40.8349 21.6818 40.7089 21.5968 40.5495C21.5118 40.39 21.4834 40.2064 21.5162 40.0287C21.5491 39.8511 21.6412 39.6898 21.7775 39.5712C21.9139 39.4526 22.0864 39.3838 22.267 39.376H22.3211C22.5274 39.3825 22.7231 39.469 22.8668 39.6173C23.0104 39.7656 23.0907 39.964 23.0906 40.1705Z" fill="#444545"/>
    <path d="M23.0906 40.1705C23.0913 40.3275 23.0455 40.4813 22.9589 40.6124C22.8722 40.7434 22.7487 40.8458 22.6039 40.9067C22.5057 40.9478 22.4004 40.9689 22.294 40.9689C22.1876 40.9689 22.0823 40.9478 21.9841 40.9067C21.8183 40.8349 21.6818 40.7089 21.5968 40.5495C21.5118 40.39 21.4834 40.2064 21.5162 40.0287C21.5491 39.8511 21.6412 39.6898 21.7775 39.5712C21.9139 39.4526 22.0864 39.3838 22.267 39.376H22.3211C22.5274 39.3825 22.7231 39.469 22.8668 39.6173C23.0104 39.7656 23.0907 39.964 23.0906 40.1705Z" fill="#444545"/>
    <path opacity="0.8" d="M40.5866 40.1714C40.5873 40.3285 40.5415 40.4823 40.4549 40.6133C40.3682 40.7444 40.2447 40.8468 40.0999 40.9077H39.4801C39.3467 40.852 39.2309 40.7611 39.1451 40.6447C39.0593 40.5284 39.0067 40.391 38.9929 40.2471C38.9791 40.1032 39.0046 39.9582 39.0667 39.8277C39.1288 39.6971 39.2251 39.5859 39.3455 39.5058C39.4658 39.4257 39.6056 39.3798 39.75 39.373C39.8944 39.3661 40.038 39.3986 40.1654 39.4669C40.2928 39.5352 40.3992 39.6368 40.4734 39.7609C40.5476 39.885 40.5867 40.0269 40.5866 40.1714Z" fill="#989A9C"/>
    <path opacity="0.8" d="M44.996 35.7451V40.9155H41.5518C41.6509 40.6827 41.7018 40.4323 41.7015 40.1793C41.7015 39.6729 41.5004 39.1873 41.1423 38.8292C40.7843 38.4712 40.2986 38.27 39.7923 38.27C39.2859 38.27 38.8003 38.4712 38.4422 38.8292C38.0842 39.1873 37.883 39.6729 37.883 40.1793C37.8814 40.432 37.931 40.6824 38.0286 40.9155H36.4854V31.5938H42.1383L44.996 35.7451Z" fill="#989A9C"/>
    <path d="M43.5773 35.5949H38.3818V32.6416H41.6721C42.3086 33.565 42.9201 34.6798 43.5731 35.6032L43.5773 35.5949Z" fill="#E8E8E8"/>
    <path opacity="0.9" d="M39.7921 38.2705C39.2857 38.2705 38.8001 38.4717 38.4421 38.8297C38.084 39.1878 37.8828 39.6734 37.8828 40.1798C37.8813 40.4325 37.9308 40.6829 38.0284 40.9161C38.1722 41.2651 38.4163 41.5636 38.73 41.7736C39.0436 41.9836 39.4126 42.0958 39.79 42.0958C40.1675 42.0958 40.5365 41.9836 40.8501 41.7736C41.1637 41.5636 41.4079 41.2651 41.5516 40.9161C41.6507 40.6832 41.7016 40.4328 41.7014 40.1798C41.7003 39.6738 41.4988 39.1888 41.141 38.8309C40.7831 38.4731 40.2981 38.2716 39.7921 38.2705ZM39.7921 40.9785C39.6849 40.9795 39.5787 40.9582 39.4801 40.9161C39.3102 40.8445 39.1703 40.7164 39.0841 40.5534C38.9979 40.3904 38.9707 40.2026 39.0072 40.0219C39.0437 39.8412 39.1416 39.6786 39.2843 39.5619C39.427 39.4451 39.6057 39.3813 39.79 39.3813C39.9744 39.3813 40.1531 39.4451 40.2958 39.5619C40.4385 39.6786 40.5364 39.8412 40.5729 40.0219C40.6094 40.2026 40.5822 40.3904 40.496 40.5534C40.4098 40.7164 40.2699 40.8445 40.0999 40.9161C40.0027 40.9578 39.8979 40.979 39.7921 40.9785Z" fill="#444545"/>
    <path opacity="0.9" d="M40.5866 40.1714C40.5873 40.3285 40.5415 40.4823 40.4549 40.6133C40.3682 40.7444 40.2447 40.8468 40.0999 40.9077C40.0017 40.9487 39.8964 40.9699 39.79 40.9699C39.6836 40.9699 39.5783 40.9487 39.4801 40.9077C39.3467 40.852 39.2309 40.7611 39.1451 40.6447C39.0593 40.5284 39.0067 40.391 38.9929 40.2471C38.9791 40.1032 39.0046 39.9582 39.0667 39.8277C39.1288 39.6971 39.2251 39.5859 39.3455 39.5058C39.4658 39.4257 39.6056 39.3798 39.75 39.373C39.8944 39.3661 40.038 39.3986 40.1654 39.4669C40.2928 39.5352 40.3992 39.6368 40.4734 39.7609C40.5476 39.885 40.5867 40.0269 40.5866 40.1714Z" fill="#444545"/>
    <path d="M40.5866 40.1714C40.5873 40.3285 40.5415 40.4823 40.4549 40.6133C40.3682 40.7444 40.2447 40.8468 40.0999 40.9077C40.0017 40.9487 39.8964 40.9699 39.79 40.9699C39.6836 40.9699 39.5783 40.9487 39.4801 40.9077C39.3467 40.852 39.2309 40.7611 39.1451 40.6447C39.0593 40.5284 39.0067 40.391 38.9929 40.2471C38.9791 40.1032 39.0046 39.9582 39.0667 39.8277C39.1288 39.6971 39.2251 39.5859 39.3455 39.5058C39.4658 39.4257 39.6056 39.3798 39.75 39.373C39.8944 39.3661 40.038 39.3986 40.1654 39.4669C40.2928 39.5352 40.3992 39.6368 40.4734 39.7609C40.5476 39.885 40.5867 40.0269 40.5866 40.1714Z" fill="#444545"/>
    <path opacity="0.9" d="M37.3256 31.5889H36.4854V40.9148H37.3256V31.5889Z" fill="#444545"/>
</svg>
