<svg width="46" height="72" viewBox="0 0 46 72" fill="none" xmlns="http://www.w3.org/2000/svg">
<path d="M22.8547 71.25C18.7446 71.3314 14.6769 70.408 11.0047 68.56C7.66643 66.8691 4.86764 64.2782 2.9247 61.08C0.933261 57.7219 -0.0782298 53.8733 0.00472163 49.97C-0.0338284 46.194 0.917755 42.4738 2.7647 39.18C4.66932 35.8522 7.52957 33.1731 10.9747 31.49L10.7847 34.91C8.01461 33.2498 5.70434 30.9224 4.06472 28.14C2.48199 25.3749 1.67042 22.2357 1.71471 19.05C1.62177 15.4858 2.56301 11.9709 4.4247 8.93002C6.24502 6.06557 8.83808 3.77412 11.9047 2.32002C15.3473 0.790361 19.0726 0 22.8397 0C26.6069 0 30.3321 0.790361 33.7747 2.32002C36.834 3.77724 39.4198 6.06842 41.2347 8.93002C42.5982 11.0335 43.5173 13.3935 43.9355 15.8652C44.3537 18.3368 44.2622 20.8678 43.6666 23.3028C43.0709 25.7377 41.9838 28.0252 40.4719 30.0247C38.96 32.0242 37.0553 33.6935 34.8747 34.93L34.7247 31.61C38.1759 33.2312 41.0454 35.8738 42.9447 39.18C44.8169 42.4726 45.7831 46.2026 45.7447 49.99C45.8259 53.8958 44.8071 57.7457 42.8047 61.1C40.8439 64.298 38.0325 66.8878 34.6847 68.58C31.0154 70.4137 26.9559 71.3299 22.8547 71.25V71.25ZM22.8547 61.79C26.1017 61.9416 29.2878 60.8713 31.7847 58.79C34.0647 56.79 35.2047 53.8534 35.2047 49.98C35.2047 46.1067 34.0714 43.1534 31.8047 41.12C29.2413 39.1358 26.0914 38.0592 22.8497 38.0592C19.608 38.0592 16.4582 39.1358 13.8947 41.12C11.6347 43.16 10.5047 46.1134 10.5047 49.98C10.5047 53.8467 11.6447 56.7834 13.9247 58.79C16.4216 60.8713 19.6076 61.9416 22.8547 61.79V61.79ZM22.8547 28.55C25.5919 28.6735 28.2865 27.8389 30.4747 26.19C32.4247 24.63 33.3947 22.19 33.3947 19.05C33.3947 15.91 32.3947 13.45 30.4747 11.85C28.2355 10.2871 25.5705 9.44905 22.8397 9.44905C20.109 9.44905 17.444 10.2871 15.2047 11.85C13.2447 13.45 12.2647 15.85 12.2647 19.05C12.2647 22.24 13.2647 24.63 15.2047 26.19C17.4041 27.8396 20.1082 28.6738 22.8547 28.55Z" fill="white"/>
</svg>
