<svg width="20" height="21" viewBox="0 0 20 21" fill="none" xmlns="http://www.w3.org/2000/svg">
    <path d="M13.3333 9.94737V3.31579L10 0L6.66667 3.31579V5.52632H0V21H20V9.94737H13.3333ZM4.44444 18.7895H2.22222V16.5789H4.44444V18.7895ZM4.44444 14.3684H2.22222V12.1579H4.44444V14.3684ZM4.44444 9.94737H2.22222V7.73684H4.44444V9.94737ZM11.1111 18.7895H8.88889V16.5789H11.1111V18.7895ZM11.1111 14.3684H8.88889V12.1579H11.1111V14.3684ZM11.1111 9.94737H8.88889V7.73684H11.1111V9.94737ZM11.1111 5.52632H8.88889V3.31579H11.1111V5.52632ZM17.7778 18.7895H15.5556V16.5789H17.7778V18.7895ZM17.7778 14.3684H15.5556V12.1579H17.7778V14.3684Z" fill="#EAEAEA"/>
</svg>
