<svg width="62" height="62" viewBox="0 0 62 62" fill="none" xmlns="http://www.w3.org/2000/svg">
    <path opacity="0.7" d="M53.6421 43.8311V42.0088H8V43.8311H10.3523V46.8529H8V48.6705H53.6421V46.8482H51.8941V43.8265L53.6421 43.8311ZM28.571 46.8529H14.857V43.8311H28.571V46.8529ZM47.3987 46.8529H33.0711V43.8311H47.3964L47.3987 46.8529Z" fill="#488492"/>
    <path opacity="0.9" d="M30.8213 27.4111H16.4355V41.0275H30.8213V27.4111Z" fill="#488492"/>
    <path opacity="0.9" d="M30.8213 27.4111H16.4355V32.0785H30.8213V27.4111Z" fill="#488492"/>
    <path opacity="0.8" d="M25.5604 33.6498L25.1699 33.5731L24.7539 33.6498L24.4075 33.594C24.3238 33.6274 24.2349 33.6462 24.1449 33.6498C24.0262 33.6545 23.908 33.6331 23.7985 33.5871L23.4871 33.6498L23.0501 33.5871L22.7642 33.6336L22.5526 33.5731L22.2923 33.6568L22.0599 33.6219L21.6973 33.6498V27.4111H25.5628L25.5604 33.6498Z" fill="white"/>
    <path opacity="0.8" d="M29.9442 36.4092H27.5059V40.2282H29.9442V36.4092Z" fill="#E8E8E8"/>
    <path d="M28.5041 36.8301H27.7812V37.553H28.5041V36.8301Z" fill="#488492"/>
    <path d="M29.585 37.7432H27.7812V37.9105H29.585V37.7432Z" fill="#488492"/>
    <path d="M29.0109 38.1494H27.7812V38.3168H29.0109V38.1494Z" fill="#488492"/>
    <path opacity="0.9" d="M46.2451 27.4111H31.8594V41.0275H46.2451V27.4111Z" fill="#488492"/>
    <path opacity="0.9" d="M46.2451 27.4111H31.8594V32.0785H46.2451V27.4111Z" fill="#488492"/>
    <path opacity="0.8" d="M40.9858 33.6498L40.5977 33.5731L40.1816 33.6498L39.8353 33.594C39.7506 33.6271 39.6611 33.6459 39.5703 33.6498C39.4524 33.6549 39.3348 33.6334 39.2263 33.5871L38.9125 33.6498L38.4778 33.5871L38.1919 33.6336L37.9781 33.5731L37.7177 33.6568L37.4853 33.6219L37.125 33.6498V27.4111H40.9882L40.9858 33.6498Z" fill="white"/>
    <path opacity="0.8" d="M45.3719 36.4092H42.9336V40.2282H45.3719V36.4092Z" fill="#E8E8E8"/>
    <path d="M43.928 36.8301H43.2051V37.553H43.928V36.8301Z" fill="#488492"/>
    <path d="M45.0088 37.7432H43.2051V37.9105H45.0088V37.7432Z" fill="#488492"/>
    <path d="M44.4347 38.1494H43.2051V38.3168H44.4347V38.1494Z" fill="#488492"/>
    <path opacity="0.9" d="M46.2451 13H31.8594V26.6164H46.2451V13Z" fill="#488492"/>
    <path opacity="0.9" d="M46.2451 13H31.8594V17.6674H46.2451V13Z" fill="#488492"/>
    <path opacity="0.8" d="M40.9858 19.2387L40.5977 19.1504L40.1816 19.2294L39.8353 19.1713C39.7511 19.2064 39.6614 19.2261 39.5703 19.2294C39.4521 19.2351 39.3342 19.2128 39.2263 19.1643L38.9125 19.2294L38.4778 19.1643L38.1919 19.2108L37.9781 19.1504L37.7177 19.2364L37.4853 19.2015L37.125 19.2294V13H40.9882L40.9858 19.2387Z" fill="white"/>
    <path opacity="0.8" d="M45.3719 21.998H42.9336V25.817H45.3719V21.998Z" fill="#E8E8E8"/>
    <path d="M43.928 22.4189H43.2051V23.1418H43.928V22.4189Z" fill="#488492"/>
    <path d="M45.0088 23.332H43.2051V23.4994H45.0088V23.332Z" fill="#488492"/>
    <path d="M44.4347 23.7383H43.2051V23.9056H44.4347V23.7383Z" fill="#488492"/>
    <path opacity="0.9" d="M30.8213 13H16.4355V26.6164H30.8213V13Z" fill="#488492"/>
    <path opacity="0.9" d="M30.8213 13H16.4355V17.6674H30.8213V13Z" fill="#488492"/>
    <path opacity="0.8" d="M25.5604 19.2387L25.1699 19.1597L24.7539 19.2387L24.4075 19.1806C24.3243 19.216 24.2353 19.2357 24.1449 19.2387C24.0259 19.244 23.9074 19.2217 23.7985 19.1736L23.4871 19.2387L23.0501 19.1736L22.7642 19.2201L22.5526 19.1597L22.2923 19.2457L22.0599 19.2108L21.6973 19.2387V13H25.5628L25.5604 19.2387Z" fill="white"/>
    <path opacity="0.8" d="M29.9442 21.998H27.5059V25.817H29.9442V21.998Z" fill="#E8E8E8"/>
    <path d="M28.5041 22.4189H27.7812V23.1418H28.5041V22.4189Z" fill="#488492"/>
    <path d="M29.585 23.332H27.7812V23.4994H29.585V23.332Z" fill="#488492"/>
    <path d="M29.0109 23.7383H27.7812V23.9056H29.0109V23.7383Z" fill="#488492"/>
</svg>
